<?xml version="1.0" ?>
<!DOCTYPE svg
  PUBLIC '-//W3C//DTD SVG 1.1//EN'
  'http://www.w3.org/Graphics/SVG/1.1/DTD/svg11.dtd'>
<svg xmlns:xlink="http://www.w3.org/1999/xlink" xmlns="http://www.w3.org/2000/svg" width="300pt" height="200pt" viewBox="80 -25 200 200" version="1.1">
  <defs>
    <style type="text/css">*{stroke-linejoin: round; stroke-linecap: butt}</style>
  </defs>
  <g id="figure_1">

    <g id="axes_1">
      <g id="line2d_1">
        <path d="M 7.2 118.08  L 44.492973 118.08  L 45.158919 107.026941  L 45.824865 101.493063  L 46.712793 96.315827  L 47.822703 91.37203  L 49.154595 86.639133  L 50.486486 82.717478  L 52.04036 78.840126  L 53.594234 75.515103  L 55.37009 72.2322  L 57.145946 69.388443  L 59.143784 66.616501  L 61.141622 64.222249  L 63.139459 62.14944  L 65.359279 60.172431  L 67.579099 58.496193  L 69.798919 57.086213  L 72.240721 55.809927  L 74.682523 54.792538  L 77.124324 54.009414  L 79.788108 53.398026  L 82.451892 53.017955  L 85.337658 52.844427  L 88.223423 52.897328  L 91.331171 53.18522  L 94.438919 53.691141  L 97.768649 54.452096  L 101.32036 55.487383  L 105.316036 56.894063  L 109.755676 58.710904  L 114.861261 61.058609  L 121.742703 64.494371  L 131.731892 69.473142  L 136.171532 71.417308  L 139.723243 72.730659  L 142.830991 73.640188  L 145.494775 74.201011  L 147.936577 74.509294  L 150.378378 74.59767  L 152.598198 74.470789  L 154.818018 74.134332  L 157.037838 73.579751  L 159.257658 72.801987  L 161.477477 71.799503  L 163.919279 70.439417  L 166.361081 68.815965  L 169.024865 66.755996  L 171.688649 64.409858  L 174.574414 61.565722  L 177.682162 58.177033  L 181.011892 54.203049  L 184.563604 49.608937  L 188.337297 44.365201  L 192.554955 38.107621  L 196.994595 31.114739  L 201.878198 22.991284  L 206.983784 14.063354  L 212.533333 3.902166  L 215.127934 -1  L 215.127934 -1  " clip-path="url(#pbce14fb093)" style="fill: none; stroke:#000000; stroke-width: 1.5; stroke-linecap: square"/>
      </g>
      <g id="line2d_2">
        <path d="M 7.2 118.08  L 44.492973 118.08  L 45.158919 129.133059  L 45.824865 134.666937  L 46.712793 139.844173  L 47.822703 144.78797  L 49.154595 149.520867  L 50.486486 153.442522  L 52.04036 157.319874  L 53.594234 160.644897  L 55.37009 163.9278  L 57.145946 166.771557  L 59.143784 169.543499  L 61.141622 171.937751  L 63.139459 174.01056  L 65.359279 175.987569  L 67.579099 177.663807  L 69.798919 179.073787  L 72.240721 180.350073  L 74.682523 181.367462  L 77.124324 182.150586  L 79.788108 182.761974  L 82.451892 183.142045  L 85.337658 183.315573  L 88.223423 183.262672  L 91.331171 182.97478  L 94.438919 182.468859  L 97.768649 181.707904  L 101.32036 180.672617  L 105.316036 179.265937  L 109.755676 177.449096  L 114.861261 175.101391  L 121.742703 171.665629  L 131.731892 166.686858  L 136.171532 164.742692  L 139.723243 163.429341  L 142.830991 162.519812  L 145.494775 161.958989  L 147.936577 161.650706  L 150.378378 161.56233  L 152.598198 161.689211  L 154.818018 162.025668  L 157.037838 162.580249  L 159.257658 163.358013  L 161.477477 164.360497  L 163.919279 165.720583  L 166.361081 167.344035  L 169.024865 169.404004  L 171.688649 171.750142  L 174.574414 174.594278  L 177.682162 177.982967  L 181.011892 181.956951  L 184.563604 186.551063  L 188.337297 191.794799  L 192.554955 198.052379  L 196.994595 205.045261  L 201.878198 213.168716  L 206.983784 222.096646  L 212.533333 232.257834  L 215.127934 237.16  L 215.127934 237.16  " clip-path="url(#pbce14fb093)" style="fill: none; stroke: #000000; stroke-width: 1.5; stroke-linecap: square"/>
      </g>
      <g id="line2d_3">
        <path d="M 7.2 118.08  L 228.96 118.08  " clip-path="url(#pbce14fb093)" style="fill: none; stroke-dasharray: 1.85,0.8; stroke-dashoffset: 0; stroke: #808080; stroke-width: 0.5"/>
      </g>
      <g id="line2d_4">
        <path d="M 118.08 228.96  L 118.08 7.2  " clip-path="url(#pbce14fb093)" style="fill: none; stroke-dasharray: 1.85,0.8; stroke-dashoffset: 0; stroke: #808080; stroke-width: 0.5"/>
      </g>
      <g id="line2d_5">
        <defs>
          <path id="m13e424d116" d="M 0 3  C 0.795609 3 1.55874 2.683901 2.12132 2.12132  C 2.683901 1.55874 3 0.795609 3 0  C 3 -0.795609 2.683901 -1.55874 2.12132 -2.12132  C 1.55874 -2.683901 0.795609 -3 0 -3  C -0.795609 -3 -1.55874 -2.683901 -2.12132 -2.12132  C -2.683901 -1.55874 -3 -0.795609 -3 0  C -3 0.795609 -2.683901 1.55874 -2.12132 2.12132  C -1.55874 2.683901 -0.795609 3 0 3  z "/>
        </defs>
        <g clip-path="url(#pbce14fb093)">
          <use xlink:href="#m13e424d116" x="173.52" y="62.64" style="fill: #00bfff"/>
        </g>
      </g>
      <g id="line2d_6">
        <defs>
          <path id="medee8dfdd2" d="M 0 3  C 0.795609 3 1.55874 2.683901 2.12132 2.12132  C 2.683901 1.55874 3 0.795609 3 0  C 3 -0.795609 2.683901 -1.55874 2.12132 -2.12132  C 1.55874 -2.683901 0.795609 -3 0 -3  C -0.795609 -3 -1.55874 -2.683901 -2.12132 -2.12132  C -2.683901 -1.55874 -3 -0.795609 -3 0  C -3 0.795609 -2.683901 1.55874 -2.12132 2.12132  C -1.55874 2.683901 -0.795609 3 0 3  z "/>
        </defs>
        <g clip-path="url(#pbce14fb093)">
          <use xlink:href="#medee8dfdd2" x="62.64" y="62.64" style="fill: #00ff00"/>
        </g>
      </g>
      <g id="text_1">
        <g style="fill: #00bfff" transform="translate(173.52 51.552) scale(0.1 -0.1)">
          <defs>
            <path id="DejaVuSans-50" d="M 1259 4147  L 1259 2394  L 2053 2394  Q 2494 2394 2734 2622  Q 2975 2850 2975 3272  Q 2975 3691 2734 3919  Q 2494 4147 2053 4147  L 1259 4147  z M 628 4666  L 2053 4666  Q 2838 4666 3239 4311  Q 3641 3956 3641 3272  Q 3641 2581 3239 2228  Q 2838 1875 2053 1875  L 1259 1875  L 1259 0  L 628 0  L 628 4666  z " transform="scale(0.015625)"/>
          </defs>
          <use xlink:href="#DejaVuSans-50"/>
        </g>
      </g>
      <g id="text_2">
        <g style="fill: #00ff00" transform="translate(54.768125 51.552) scale(0.1 -0.1)">
          <defs>
            <path id="DejaVuSans-51" d="M 2522 4238  Q 1834 4238 1429 3725  Q 1025 3213 1025 2328  Q 1025 1447 1429 934  Q 1834 422 2522 422  Q 3209 422 3611 934  Q 4013 1447 4013 2328  Q 4013 3213 3611 3725  Q 3209 4238 2522 4238  z M 3406 84  L 4238 -825  L 3475 -825  L 2784 -78  Q 2681 -84 2626 -87  Q 2572 -91 2522 -91  Q 1538 -91 948 567  Q 359 1225 359 2328  Q 359 3434 948 4092  Q 1538 4750 2522 4750  Q 3503 4750 4090 4092  Q 4678 3434 4678 2328  Q 4678 1516 4351 937  Q 4025 359 3406 84  z " transform="scale(0.015625)"/>
          </defs>
          <use xlink:href="#DejaVuSans-51"/>
        </g>
      </g>
    </g>
  </g>
</svg>
