<svg xmlns="http://www.w3.org/2000/svg" width="1200" height="1200" viewBox="0 0 1200 1200">
  <defs>
    <pattern id="cpp_pattern_random" patternUnits="userSpaceOnUse" width="420" height="420">
      <rect width="420" height="420" fill="none"/>

      <g fill="white" fill-opacity=".4" font-family="Inter, Arial Black, Helvetica, sans-serif"
         font-weight="900" text-anchor="middle"  dominant-baseline="middle">

        <text x="52"  y="68"  font-size="44" transform="rotate(-37 52 68)">C++</text>
        <text x="168" y="54"  font-size="72" transform="rotate(-18 168 54)">C++</text>
        <text x="318" y="82"  font-size="58" transform="rotate(-61 318 82)">C++</text>

        <text x="96"  y="172" font-size="64" transform="rotate(-49 96 172)">C++</text>
        <text x="248" y="154" font-size="40" transform="rotate(-24 248 154)">C++</text>
        <text x="362" y="192" font-size="76" transform="rotate(-43 362 192)">C++</text>

        <text x="58"  y="296" font-size="56" transform="rotate(-57 58 296)">C++</text>
        <text x="182" y="278" font-size="84" transform="rotate(-31 182 278)">C++</text>
        <text x="326" y="314" font-size="48" transform="rotate(-52 326 314)">C++</text>

        <text x="120" y="382" font-size="68" transform="rotate(-41 120 382)">C++</text>
        <text x="286" y="374" font-size="52" transform="rotate(-66 286 374)">C++</text>
        <text x="386" y="398" font-size="38" transform="rotate(-28 386 398)">C++</text>
      </g>
    </pattern>
  </defs>

  <rect width="100%" height="100%" fill="url(#cpp_pattern_random)"/>
</svg>