<svg xmlns="http://www.w3.org/2000/svg" version="1.1" xmlns:xlink="http://www.w3.org/1999/xlink" xmlns:svgjs="http://svgjs.dev/svgjs" viewBox="0 0 1422 800"><g fill="none" stroke-width="2" stroke="hsl(265, 55%, 20%)" stroke-linecap="round" stroke-dasharray="16"><path d="M2484.64 385.18C2287.53 415.17 2165.18 439.23 2172.01 457.49 2303.85 475.81 2497.84 488.47 2665.24 495.82 2732.46 503.65 2668.52 506.9 2502.29 506.52 2231.07 508.14 2289.73 518.98 2548.77 540.29 2662.16 566.6 2664.49 603.82 2554.89 654.42 2373.88 717.32 2189.22 794.49 2066.7 885.36 2046.7 983.2 2130.77 1088.02 2281.73 1194.16 2443.39 1291 2552.99 1375.23 2571.13 1438.62 2490.26 1474.31 2335.16 1479.34 2154.62 1451.75 2000.92 1398.12 1918.59 1322.88 1925.43 1237.31 2013.89 1160.45 2149.87 1103.31 2287.98 1081.07 2387.69 1104.75 2415.88 1176.22 2364.24 1291.46 2243.99 1433.38 2084.69 1583.75 1923.68 1717.25 1793.9 1807.79 1722.53 1840.41 1718.33 1807.76 1776.72 1721.12 1876.92 1600.5 1991.19 1478.34 2094.85 1393.53 2160.64 1371.48 2174.75 1427.62 2133.87 1554.03 2043.74 1724.36 1920.04 1896.6 1778.97 2022.86 1643.23 2070.3 1529.92 2024.92 1449.39 1905.54 1409.72 1751.87 1409.45 1619.81 1444.77 1563.08 1504.33 1607.15 1575.66 1746.3 1651.1 1936.2 1715.75 2114.68 1761.58 2218.09 1786.07 2209.62 1783.73 2094.7 1755.92 1920.84 1704.78 1765.41 1634.8 1695.75 1551.98 1749.6 1458.46 1910.96 1362.52 2117.22 1268.99 2282.53 1177.48 2335.67 1094.64 2254.91 1021.87 2077.96 957.04 1892.33 903.14 1787.53 858.97 1820.31 822.69 1980.55 793.95 2195.15 770.69 2361.15 752.68 2396.89 737.41 2285.05 723.09 2082.78 711.41 1898.54 698.66 1829.67 683.69 1917.33 669.69 2117.98 652.37 2326.38 631.13 2429.67 610.09 2371.19 584.7 2181.69 554.71 1965.74 524.73 1846.43 490.5 1889.38 452.31 2067.76 414.32 2283.2 372.8 2415.37 328.39 2393.53 284.95 2229.91 239.72 2011.23 193.89 1850.98 150.69 1829.2 108.9 1952.7 70.36 2153.08 37.06 2327.87 9.76 2385.63 -9.47 2297.88 -20.82 2105.69 -21.9 1899.93 -11.48 1774.11 6.88 1781.55 35.89 1912.2 74.18 2099.29 114.48 2256.28 157.81 2307.91 199.36 2230.84 230.21 2055.45 248.87 1853.65 249.37 1704.53 226.54 1661.86 178.92 1735.57 105.19 1887.5 10.12 2054.95 -103.04 2166.47 -226.23 2178.25 -345.33 2083.8 -451.9 1914.43 -533.44 1726.83 -579.39 1578.07 -585.14 1512.99 -549.21 1543.27 -480.5 1652.77 -388.53 1797.73 -290.37 1927.59 -209.57 2002.33 -161.48 1994.83 -161.74 1906.91 -216.99 1758.97 -323.02 1589.01 -465.99 1436.69 -619.56 1332.08 -758.13 1295.33 -853.91 1325.58 -887.1 1410.55 -852.15 1522.28 -757.78 1631.06 -632.18 1714.35 -507.28 1749.62 -420.38 1730.19 -402.1 1658.42 -462.59 1546.24 -593.52 1412.08 -762.86 1271.5 -928.98 1145.93 -1046.46 1048.56 -1082.32 985.72 -1027.9 961.6 -900.95 971.76 -747.16 1011.79 -617.65 1069.7 -561.18 1134.37 -603.72 1200.88 -736.52 1256.12 -920.16 1294.39 -1093.1 1315.46 -1197.93 1314.43 -1197.42 1292.95 -1094.39 1253.13 -927.95 1197.96 -763.86 1132.11 -671.18 1056.17 -689.13 976.69 -816.81 897.32 -1006.86 815.85 -1186.36 738.81 -1283.08 667.61 -1258.06 598.22 -1121.89 535.68 -932.65 479.76 -775.21 426.18 -718.65 378.39 -791.8 335.54 -965.13 294.1 -1163.61 256.4 -1298.45 221.73 -1308.28 187.45 -1187.45 155.43 -990.34 125.44 -810.11 95.46 -730.23 67.85 -785.23 42.9 -949.18 18.35 -1144.7 -2.78 -1282.94 -19.74 -1303.39 -35.31 -1196.07 -45.5 -1008.6 -49.44 -820.22 -51.03 -709.87 -45.55 -719.95 -32.71 -843.15 -18.06 -1023.29 2.91 -1183.3 28.87 -1258.18 52.72 -1215.18 77.22 -1071.28 98.76 -879.82 110.2 -712.3 111.53 -627.25 98.14 -651.18 66.39 -769.1 14.81 -932.03 -58.22 -1080.06 -148.46 -1155.76 -255.02 -1132.01 -372.17 -1015.01 -487.48 -841.81 -595.35 -666.34 -684.61 -538.86 -744.02 -494.91 -768.41 -540.11 -753.34 -655.91 -703.73 -800.02 -625.17 -925.62 -530.81 -996.01 -442.87 -986.99 -376.11 -900.6 -348.94 -756.54 -374.11 -590.59 -453.15 -440.83 -579.34 -337.11 -731.03 -299.58 -884.8 -328.75 -1010.91 -413.24 -1082.3 -526.29 -1085.8 -638.29 -1020.49 -725.52 -907.47 -764.79 -775.88 -748.08 -665.33 -677.26 -614.8 -564.12 -643.72 -427.78 -753.87 -285.82 -919.14 -160.62 -1098.5 -66.69 -1241.35 -11.66 -1304.98 1.02 -1272.22 -23.32 -1154.68 -78.58 -998.3 -150.51 -859.07 -225.93 -793.64 -297.3 -834.44 -350.78 -973.87 -380.29 -1168.07 -384.55 -1346.74 -361 -1446.05 -312.99 -1427.78 -243.34 -1303.05 -158.64 -1124.47 -65.49 -971.05 34.15 -915.97 131.68 -988.35 222.88 -1164.83 308.5 -1371.41 382.86 -1520.28 445.52 -1544.64 498.48 -1435.74 540.28 -1245.6 572.74 -1067.7 597.05 -994.23 614.99 -1064.94 628.83 -1251.3 637.83 -1463.26 645.63 -1596.96 653.94 -1583.96 660.09 -1432.5 668.59 -1221.2 680.45 -1063.51 691.6 -1047.6 706.95 -1184.25 726.98 -1402.7 746.87 -1584.08 771.72 -1628.55 801.71 -1509.24 831.69 -1293.29 866.47 -1102.27 905.8 -1040.79 945.01 -1141.08 988.49 -1344.99 1035.74 -1539.71 1082.3 -1621.44 1131.78 -1545.19 1183.15 -1352.16 1232.35 -1141.1 1281.61 -1019.07 1329.17 -1043.23 1371.87 -1197.66 1409.99 -1399.32 1441.19 -1545.26 1464.25 -1563.76 1477.43 -1443.34 1478.87 -1240.79 1470.62 -1046.92 1450.09 -947.94 1417.7 -981.59 1379.72 -1127.41 1334.8 -1312.92 1287.12 -1452.3 1245.94 -1484.17 1212.57 -1391.29 1193.55 -1211.47 1196.18 -1013.21 1222.58 -872.7 1276.09 -837.47 1354.84 -914.14 1456.83 -1064.71 1575.96 -1225.6 1699.15 -1335.72 1818.09 -1349.64 1919.57 -1261.69 1990.14 -1098.41 2022.87 -912.44 2012.44 -759.71 1963.11 -680.97 1881.67 -694.01 1782.63 -784.86 1689.19 -921.69 1618.1 -1055.6 1588.41 -1144.62 1612.84 -1163.37 1692.36 -1102.95 1818.89 -978.84 1970.19 -817.38 2121.6 -656.52 2243.48 -528.73 2310.05 -454.94 2308.94 -445.52 2240.63 -493.16 2126.28 -583.75 1994.73 -690.35 1884.03 -787.67 1830.98 -858.31 1854.27 -884.35 1955.88 -861.82 2112.71 -793.36 2286.96 -689.21 2431.78 -564.58 2506 -431.25 2489.96 -307.5 2389.22 -204.63 2240.5 -127.79 2092.9 -82.87 2000.3 -67.92 2000.95 -80.67 2099.86 -113.58 2269.87 -158.45 2454.78 -212.62 2593.45 -264.83 2636.87 -309.44 2571.31 -347.09 2422.01 -370.43 2247.47 -378.92 2120.5 -375.12 2093.11 -357.35 2182.28 -328.16 2356.57 -289.13 2549.66 -242.71 2684.44 -191.82 2706.08 -135.62 2605.93 -78.57 2426.34 -22.68 2247.66 35.21 2147.72 89.94 2174.1 140.53 2318.27 191.58 2518.27 237.76 2685.23 278.67 2743.23 319.63 2664.87 355.2 2484.64 385.18Q2484.64 385.18 2484.64 385.18" opacity="0.15"></path><path d="M2415.22 114.01C2225.09 142.8 2101.08 172.9 2094.28 204.54 2206.56 236.57 2387.98 270.89 2561.5 308.24 2656.6 346.98 2633.01 389.99 2501.27 438.21 2313.17 488.95 2142.37 545.98 2052.84 609.85 2075.97 676.28 2198.57 749.17 2369.84 827.72 2524.99 905.94 2602.78 986.46 2574.64 1066.32 2449.71 1138.81 2271.03 1204.07 2098.98 1257.54 1988.22 1294.74 1972.36 1313.8 2050.2 1311.73 2192.73 1290.57 2347.34 1249.52 2461.46 1191.72 2498.75 1127.77 2444.56 1061.22 2314.94 1001.96 2144.89 963.44 1982.1 951.17 1868.28 973.16 1829.2 1031.98 1869.83 1125.91 1971.95 1248.34 2105.87 1383.05 2230.16 1516.74 2310.79 1630.54 2327.54 1705.7 2273.29 1732.28 2160.53 1704.84 2011.22 1631.81 1857.31 1526.62 1727.92 1412.78 1643.66 1321.56 1617.3 1274.7 1646.66 1290.67 1722.19 1372.92 1822.49 1509.61 1924.69 1674.82 2036.34 1885.71 1988.26 1886.44 1838.85 1688.87 1711.79 1559.47 1584.33 1485.42 1469.85 1497.69 1376.26 1599.85 1312.67 1766.78 1280.55 1950.58 1279.15 2092.72 1303.48 2149.51 1346.01 2101.81 1402.7 1970.37 1462.29 1803.51 1517.46 1666.91 1566.49 1619.28 1600.97 1683.78 1618.78 1843.53 1621.11 2040.19 1605.91 2200.95 1575.41 2262.4 1531.2 2201.46 1476.27 2044.47 1414.13 1859.76 1344.62 1732.59 1272.97 1721.27 1201.75 1837.49 1128.66 2033.62 1059.02 2225.5 993.92 2326.92 929.71 2292.1 870.89 2137.45 817.44 1936.6 765.41 1789.65 718.34 1768.97 675.77 1889.19 634.11 2093.65 596.2 2282.9 561.61 2361.8 527.3 2290.25 495.8 2103.23 467.01 1896.29 438.23 1778.73 412.48 1810.37 389.94 1972.17 367.67 2181.56 349.1 2330.08 334.69 2343.9 321.18 2216.91 312.58 2011.38 309.4 1826.6 307.63 1748.58 311.68 1811.03 321.6 1979.21 332.41 2172.92 348.24 2298.15 368.03 2297.19 385.96 2169.75 404.83 1971.26 422.11 1786.8 432.02 1691.39 435.26 1721.04 428.38 1855.96 407.79 2036.75 372.48 2182.76 320.26 2232.88 252.56 2166 168.82 2006.03 71.17 1812.81 -32.61 1653.69 -140.15 1583.57 -244.11 1619.84 -333.91 1744.02 -404.82 1904.19 -449.28 2039.86 -463 2103.9 -444.54 2070.67 -395.33 1950.58 -325.22 1777.76 -241.37 1603.86 -157.12 1476.19 -90.66 1425.03 -52.41 1458.51 -54.18 1558.23 -101.56 1693.06 -192.49 1818.55 -318.35 1898.66 -460.04 1912.52 -598.97 1853.36 -712.24 1735.38 -779.32 1581.61 -789.79 1425.7 -741.43 1296.94 -647.94 1214.92 -528.99 1191.43 -413.67 1222.65 -334.91 1298.43 -313.68 1396.66 -362.45 1494.92 -475.1 1577.07 -630.4 1623.94 -794.3 1628.29 -926.39 1589.5 -995.96 1512.21 -984.74 1407.61 -898.78 1285 -762.78 1160.59 -618.41 1046.24 -514.47 947.88 -484.85 874.79 -545.56 828.6 -683.11 808.78 -859.99 812.53 -1023.63 834.08 -1122.57 871.29 -1126.63 915.01 -1034.58 959.3 -881.24 1004.39 -720.05 1041.76 -611.36 1069.04 -599.47 1088.85 -692.26 1096.48 -861.12 1092.81 -1046.1 1080.63 -1181.13 1059.11 -1215.37 1030.44 -1136.95 995.8 -975.94 956.99 -796.28 916.06 -672.98 872.05 -656.47 828.23 -757.27 785.96 -936.48 742.55 -1122.21 701.96 -1237.37 664.95 -1233.45 627.69 -1110.9 594.51 -920.77 565.72 -746.28 536.93 -662.16 512.87 -702.17 493.27 -848.66 473.42 -1037.34 457.52 -1188.67 444.87 -1241.42 431.07 -1172.97 419.22 -1011.9 408.01 -821.31 393.73 -675.54 377.77 -628.21 358.12 -694.55 332.5 -844.58 300.22 -1017.62 259.1 -1148.59 209.48 -1185.68 149.07 -1115.45 77.04 -961.73 -2.45 -777.77 -91.5 -625.08 -187.69 -551.44 -283.07 -577.32 -377.3 -687.57 -464.4 -843.08 -535.85 -987.26 -588.88 -1071.68 -617.68 -1069.25 -620.12 -978.1 -595 -825.2 -543.91 -651.82 -476.84 -506.25 -399 -424.48 -322.24 -423.5 -263.5 -497.26 -231.32 -619.02 -236.89 -754.6 -285.59 -862.56 -376.06 -913.8 -501.01 -895.09 -642.08 -808.45 -782.34 -673.64 -899.32 -516.87 -971.75 -371.46 -988.63 -263.78 -946.12 -209.97 -856.87 -215.77 -739.59 -272.67 -623.55 -366.66 -543.28 -472.84 -520.93 -568.18 -570.67 -636.46 -686.67 -661.54 -847.11 -639.49 -1015.94 -572.8 -1149.66 -470.96 -1216.19 -348.43 -1197.07 -217.49 -1101.43 -95.71 -958.55 5.09 -815.7 78.65 -725.57 119.12 -721.25 127.91 -813.13 107.38 -976.65 65.42 -1163.61 10.77 -1313.48 -52.26 -1375.45 -112 -1329.93 -161.9 -1194.25 -211.23 -955.59 -193.3 -995.1 -131.44 -1277.55 -72.86 -1431.2 -6.04 -1478.37 65.36 -1399.23 142.1 -1231.03 218.38 -1047.53 292 -933.78 365.67 -946.5 434.24 -1084.13 497.13 -1288.94 557.98 -1468.25 612.93 -1540.53 662.4 -1470.98 709.9 -1294.65 752.76 -1096.21 791.7 -974.87 829.54 -994.34 864.43 -1147.13 896.94 -1359.41 929.15 -1524.12 959.56 -1557.27 988.35 -1439.75 1017.14 -1232.82 1043.96 -1044.32 1068.61 -969.84 1092.96 -1045.81 1114.55 -1230.74 1132.78 -1429.51 1149.92 -1544.08 1162.72 -1516.35 1170.44 -1360.99 1176.1 -1069.47 1153.47 -1121.28 1125.72 -1393.43 1105.4 -1495.96 1081.89 -1469.67 1057.39 -1326.28 1030.63 -1038.08 1030.06 -984.29 1074.47 -1230.26 1126.7 -1368.92 1196.91 -1411.16 1284.39 -1340.12 1382.9 -1180.11 1490.6 -988.68 1600.91 -831.55 1702.83 -758.16 1791.36 -788.14 1857.75 -902.42 1894.81 -1058.35 1899.47 -1196.35 1870.28 -1268.55 1813.83 -1250.86 1735.67 -1145.8 1647.54 -984.39 1567.82 -808.95 1508.01 -667.61 1482.51 -593.14 1501.65 -598.75 1567.09 -675.28 1674.86 -794.52 1809.7 -923.84 1954.51 -1023.7 2086.22 -1068.22 2180.86 -1046.47 2223.49 -960.97 2205.57 -830.27 2133.8 -676.93 2023.34 -531.38 1900.57 -417.16 1799.75 -348.52 1746.14 -333.08 1759.44 -365.42 1842.7 -436.41 1981.68 -526.49 2147.24 -616.83 2350.32 -719.29 2315.24 -703.38 2108.15 -588.16 1980.93 -481.63 1914.35 -367.12 1935.34 -254.57 2043.19 -148.15 2209.65 -57.83 2386.26 13.21 2517.61 65.17 2563.41 96.62 2508.49 110.51 2374.5 108.14 2208.04 94.56 2070.56 74.29 2016.57 46.67 2068.66 18.93 2213.34 -5.98 2508.56 -56.97 2102.34 -56.5 2130.1 -32.84 2287.13 -14.11 2480.1 8.04 2629.48 32.87 2672.37 58.09 2589.71 85.23 2415.22 114.01Q2415.22 114.01 2415.22 114.01" opacity="0.70"></path><path d="M2345.72 534.65C2162.7 562.24 2037.81 594.36 2018.52 630.77 2111.37 666.99 2277.88 707.08 2452.56 750.45 2570.06 792.9 2584.56 837.56 2491.66 883.26 2325.18 926.38 2145.37 968.5 2015.11 1007.75 1977.83 1041.68 2043.19 1069.86 2183.94 1090.04 2416.13 1102.74 2422.11 1058.84 2185.07 1003.23 2021.55 959.98 1915.51 912.95 1894.39 867.05 1960.46 831.51 2088.22 807.99 2235.38 802.8 2358.62 821.48 2418.45 865.66 2397.71 936.85 2300.76 1030.26 2152.23 1142.5 1989.45 1265.19 1849.31 1383.66 1764.27 1489.05 1749.09 1568.43 1802.75 1610.96 1906.09 1612.09 2029.78 1570.72 2145.02 1496.61 2220.92 1400.17 2240.26 1299.59 2198.37 1219.15 2102.18 1174.56 1970.37 1181.07 1824.05 1243.8 1689.71 1356.82 1587.41 1503.95 1529.33 1656.64 1521.15 1788.22 1557.68 1870.99 1630.23 1887.31 1720.86 1834.83 1812.03 1726.59 1916.87 1534.69 1910.25 1446.85 1798.34 1636.23 1692.97 1809.87 1578.56 1964.67 1465.51 2056.31 1359.56 2058.55 1270.7 1972.21 1202.87 1825.82 1157 1672.78 1134.12 1565.63 1131.28 1547.28 1146.92 1630.58 1175.09 1792.34 1210.58 1980.67 1252.82 2129.74 1293.98 2188.34 1330.54 2134.73 1364.07 1992.19 1388.59 1815.9 1403.35 1678.04 1411.02 1639.08 1408.69 1718.33 1397.5 1889.44 1379.64 2084.84 1354.87 2226.63 1324.97 2255.35 1290.61 2160.04 1253.4 1981.45 1214.89 1798.57 1174.08 1696.06 1133.67 1721.17 1094.71 1866.76 1054.86 2068.67 1017.42 2236.24 982.98 2291.45 948.34 2208.43 917.1 2024.68 889.51 1826.79 861.92 1711.3 838.31 1732.37 818.46 1877.43 798.41 2078.24 781.72 2238.61 767.84 2284.84 753.06 2196.68 740.13 2013.93 728.02 1818.47 713.61 1694.58 698.33 1694.1 680.67 1812.38 658.54 1996.51 631.74 2163.42 598.53 2241.53 558.64 2198.28 510.39 2049.96 452.66 1856.07 387.85 1690.25 313.8 1614.88 231.31 1652.97 145.78 1785.83 56.22 1956.73 -33.82 2098.11 -117.12 2157.48 -192.5 2110.09 -254.73 1972.6 -298.48 1789.49 -321.56 1621.51 -321 1519.87 -298.47 1511.91 -254.24 1593.71 -192.24 1731.88 -123.12 1880.92 -51.96 1988.71 10.88 2021.38 52.32 1968.27 66.42 1842.53 45.88 1678.2 -11.34 1514.61 -102.84 1392.78 -221.54 1337.49 -352.18 1356.4 -481.49 1437.69 -591.89 1554.6 -666.27 1678.12 -695.11 1773.28 -673.19 1817.51 -607.05 1801.12 -508.01 1725.37 -396.09 1605.62 -298.68 1460.83 -236 1317.78 -226.69 1198.27 -278.6 1116.33 -386.14 1081.93 -532.07 1093.35 -686.45 1144.96 -819.51 1221.88 -901.9 1308.02 -915.44 1392.24 -858.13 1457.34 -744.69 1494.58 -608.61 1500.97 -485.76 1473.76 -413.41 1417.23 -417.28 1335.51 -500.66 1237.77 -646.35 1132.86 -815.95 1024.67 -965.07 923.65 -1051.36 834.75 -1050.46 758.38 -963.51 699.31 -817.92 656.98 -607.19 623.53 -659.87 629.15 -912.4 651.06 -1066.29 670.57 -1143.55 688.18 -1116.92 702.16 -997.31 716.52 -826.88 725.57 -668.49 728.9 -583.68 731.3 -604.97 727.93 -727.92 719.05 -908.06 709.4 -1078.69 694.8 -1174.31 675.61 -1157.78 656.18 -1034.29 632.62 -851.27 605.03 -682.66 577.44 -595 546.16 -620.82 511.1 -749.36 475.8 -928.27 436.27 -1087.81 392.19 -1168.54 347.33 -1138.85 297.37 -1010.8 242.04 -830.78 185.8 -663.76 124.27 -567.47 57.88 -573.25 -8.12 -675.23 -77.3 -833.68 -147.88 -993.34 -214.26 -1095.99 -278.05 -1106.77 -336.05 -1021.68 -383.69 -867.35 -420.21 -692.36 -442.24 -548.33 -448.88 -477.49 -438.23 -496.03 -409.67 -594.64 -368.59 -737.96 -314.79 -879.8 -253.19 -978.7 -194.86 -1002.67 -143.08 -944.84 -106.65 -819.16 -95.41 -658.12 -112.82 -501.57 -163.15 -384.49 -244.31 -332.87 -352.66 -352.86 -479.4 -435.52 -608.06 -554.61 -726.78 -677.88 -819.43 -777.05 -871.9 -825.4 -877.78 -812.16 -835.32 -738.96 -755.29 -619.56 -650.93 -476.7 -543.98 -332.98 -462.08 -213.93 -423.33 -136.08 -443.08 -107.56 -523.45 -128.23 -653.9 -188.27 -811.82 -276.02 -963.14 -371.19 -1077.95 -456.36 -1129.45 -520.19 -1106.75 -549.53 -1016.58 -540.75 -883.68 -494.77 -750.04 -416.72 -654 -316.23 -629.6 -200.98 -690.97 -84.36 -826.48 23.78 -1002.22 118.38 -1167.1 191.27 -1274.59 240.45 -1291.26 265.93 -1214.24 269.21 -1069.82 254.63 -909.16 224.02 -794.1 184.81 -768.04 142.37 -847.61 96.97 -1009.19 56.48 -1199.19 23.74 -1349.99 -3.02 -1406.04 -18.83 -1347.46 -23.72 -1197.22 -20.13 -1018.9 -6.5 -884.94 15.5 -854.8 44.41 -946.02 79.14 -1124.82 117.76 -1319.6 160.53 -1448.55 204.78 -1457.5 249.01 -1341.72 295.18 -1154.36 339.76 -978.38 381.84 -895.64 424.6 -947.28 464.08 -1111.76 499.81 -1315.32 535.68 -1463.18 567.52 -1485.7 595.11 -1370.25 622.69 -1172.38 645.71 -987.21 664.33 -901.38 683.09 -953.78 697.73 -1117.2 708.72 -1313.66 720.36 -1453.82 729.13 -1472.18 735.88 -1361.62 744.56 -1170.66 752.8 -982.68 762.06 -876.69 775.47 -894.73 792.31 -1024.59 814.48 -1206.85 843.54 -1364.83 880.49 -1429.73 926.96 -1375.23 981.9 -1221.82 1047.23 -1028.76 1122.97 -868.28 1204.67 -796.72 1293.57 -836.2 1386.78 -965.04 1477.03 -1133.15 1563.46 -1273.57 1640.66 -1334.44 1701.82 -1293.65 1744.51 -1162.97 1764.32 -985.33 1760.44 -814.32 1732.19 -702.3 1681.53 -677.83 1617.33 -742.76 1543.96 -869.82 1471.23 -1014.73 1413.25 -1133.78 1377 -1187.29 1372.05 -1159.74 1404.3 -1056.8 1473.91 -904.52 1577.21 -740.36 1701.86 -599.54 1835.7 -513.55 1961.3 -495.47 2059.19 -543.82 2116.89 -640.11 2124.53 -756.64 2082.83 -867.61 1999.08 -943.62 1889.77 -968.5 1781.3 -937.16 1695.41 -853.9 1654.78 -733.99 1674.12 -593.93 1754.12 -457.22 1883.97 -342.08 2037.93 -259.67 2186.74 -219.02 2298.13 -219.03 2346.85 -255.88 2322.96 -318.02 2232.58 -392.55 2102.73 -471.29 1967.35 -538.9 1866.28 -587.01 1833.06 -612.9 1880.58 -611.12 2001.93 -583.21 2166.22 -531.43 2330.89 -460.7 2449.73 -377.35 2488.49 -283.64 2436.73 -188.21 2310.63 -95.99 2153.57 -6.59 2016.01 73.28 1946.49 142.39 1972.84 202.85 2089.86 251.95 2262.65 291.07 2434.26 321.96 2548.14 345.35 2564.57 363.45 2478.93 376.22 2321.29 386.59 2149.35 396.39 2029.39 403.61 2006.49 412.29 2092.67 423.58 2257.67 433.95 2440.71 447.98 2572.01 466.25 2600.59 484.34 2514.33 507.06 2345.72 534.65Q2345.72 534.65 2345.72 534.65" opacity="0.36"></path><path d="M2279.77 628.96C2103.59 655.35 1977.03 678.34 1944.29 697.81 2016.17 717.03 2164.8 732.24 2336.16 743.03 2471.45 752.97 2522.18 757.83 2471.9 757.19 2337.66 755.31 2164.08 747.69 2007.55 734.43 1916.6 720.7 1918.08 702.45 2007.34 680.91 2154.56 661.97 2309.47 643.06 2422.59 626.88 2459.81 618.96 2407.97 618.89 2282.61 630.11 2118.08 655.53 1960.45 696.32 1850.93 754.21 1815.66 826.82 1860.04 914.51 1966.67 1014.38 2105.48 1117.87 2234.97 1222.22 2320.1 1319.65 2339.45 1399.78 2285.91 1458 2172.39 1487.45 2022.85 1485.53 1870.93 1451.84 1747.64 1389.65 1675.11 1310.85 1665.13 1223.73 1713.67 1142.72 1807.77 1085.71 1922.19 1062.39 2030.76 1082.64 2112.78 1148.46 2148.78 1254.95 2132.18 1389.98 2065.04 1531.6 1958.15 1660.18 1828.81 1753.28 1693.63 1793.64 1573.21 1774.91 1481.83 1700.6 1427.65 1590.46 1414.78 1467.99 1439.29 1364.22 1495.52 1309.88 1570.37 1321.2 1650.91 1402.9 1728.55 1539.58 1789.43 1703.26 1826.4 1855.75 1837.01 1958.17 1818.22 1986.02 1772.85 1931.6 1703.92 1813.56 1618.19 1666 1522.82 1535.56 1421.27 1467.79 1322.55 1486.85 1231.71 1593.82 1149.68 1759.19 1081.85 1935.34 1028.89 2067.44 989.89 2112.99 965.07 2058.11 952.16 1921.7 953.59 1686.62 993.46 1690.99 1018.84 1952.3 1036.94 2113.23 1051.43 2187.66 1061.45 2146.35 1070.88 2007.09 1075.14 1824.46 1074.23 1673.31 1072.26 1618.73 1065.39 1684.8 1053.97 1847.88 1041.86 2041.41 1025.76 2185.47 1006.01 2218.1 986.05 2125.3 962.83 1945.58 936.44 1756.77 910.05 1643.62 880.81 1654.85 848.65 1783.18 816.28 1973.16 780.6 2140.95 741.31 2215.5 701.33 2166.55 657.17 2014.2 608.53 1821.64 558.83 1665.34 504.36 1606.61 445.16 1664.65 385.37 1814.27 321.55 1992.44 254.6 2128.11 189.24 2169.71 123.12 2099.59 58.31 1944.15 -0.56 1757.88 -54.07 1606.64 -99.27 1539.9 -133.2 1576.65 -154.68 1698.6 -161.41 1858.72 -154.18 2002.01 -131.51 2076.34 -94.05 2057.04 -47.77 1949.02 6.98 1784.91 65.2 1613.41 117.24 1481.15 160.27 1423.89 187.17 1451.36 190.51 1551.31 167.93 1688.79 116.65 1821.42 39 1913.09 -61.84 1935.36 -178.73 1882.49 -298.51 1765.72 -411.88 1612.66 -505.87 1457.53 -568.13 1330.39 -592.26 1256.95 -574.29 1246.44 -519.11 1296.2 -434.1 1388.99 -333.5 1500.31 -202.19 1646.49 -181.72 1664.63 -328.93 1525.42 -468.66 1396 -613.35 1262.72 -736.8 1142.5 -814.69 1046.32 -833.14 985.23 -788.08 961.3 -692.27 973.35 -566.87 1014.38 -442.88 1074.43 -354.89 1147 -325.91 1218.18 -368.8 1279.04 -477.47 1326.27 -629.48 1351.69 -789.76 1354.05 -917.86 1334.45 -982.67 1293.82 -966.75 1236.46 -876.56 1164.31 -737.2 1083.75 -589.81 999.64 -481.61 911.95 -445.8 827.65 -497.91 749.28 -625.92 674.72 -794.59 608.78 -954.37 551.49 -1056.2 500.17 -1069.08 456.86 -988.31 420.28 -841.96 388.58 -677.36 361.63 -550.85 337.86 -508.3 316.99 -565.53 297.4 -706.04 277.9 -882.62 259.64 -1035.2 240.18 -1109.72 218.81 -1079.63 197.73 -954.4 174.13 -778.22 147.74 -616.56 121.35 -527.97 92.49 -542.66 61.44 -654.72 30.7 -821.92 -1.61 -984.2 -34.75 -1086.12 -66.64 -1091.12 -98.08 -998.49 -127.83 -839.2 -154.68 -666.19 -177.93 -535.05 -196.01 -485.94 -209.19 -531.71 -215.22 -653.63 -212.75 -812.06 -204.33 -953.46 -186.77 -1033.15 -160.09 -1027.1 -129.6 -935.59 -92.68 -785.64 -51.82 -618.2 -14.55 -479.86 19.71 -405.7 46.14 -412.21 57.77 -492.87 53.24 -620.84 28.29 -760.98 -18.61 -871.85 -87.98 -923.85 -178.54 -903.68 -282.72 -814.49 -396.6 -677.49 -511.21 -521.57 -613.29 -381.49 -695.7 -284.79 -748.44 -247.81 -765.19 -273.96 -744.09 -351.65 -687.17 -462.62 -606.2 -578.31 -511.44 -673.15 -419.76 -729.24 -352.24 -732.7 -321.35 -683.18 -338.84 -587.83 -407.14 -462.66 -519.87 -327.31 -661.97 -198.79 -807.88 -96.12 -934.44 -30.13 -1017.12 -5.63 -1039.53 -21.72 -998.16 -70.59 -902.19 -144.27 -778.23 -227.29 -655.43 -306.5 -567.99 -373.88 -544.45 -417.38 -595.13 -432.4 -714.27 -418.22 -874.37 -375.17 -1038.38 -308.28 -1163.88 -221.57 -1216.91 -123.71 -1184.23 -22.21 -1075.53 79.6 -927.56 173.08 -785.97 254.24 -699.4 322.62 -701.56 374.57 -796.28 410.68 -958.9 435.98 -1208.49 417.03 -1215.36 388.63 -976.4 364.98 -835.83 342.94 -779.43 324.22 -833.57 305.59 -981.79 292.09 -1171.34 284.11 -1331.17 277.79 -1399.43 277.12 -1349.7 281.75 -1201.16 287.96 -1016.33 298.78 -870.46 313.61 -826.69 329.34 -906.42 348.29 -1078.13 370.01 -1270.76 391.98 -1401.77 416.24 -1414.38 442.63 -1301.27 469.02 -1112.47 497.23 -931.4 527.38 -835.91 557.78 -865.86 590.6 -1005.95 626.27 -1194.25 662.84 -1352.14 703.04 -1411.75 747.45 -1349.47 793.44 -1190.6 844.31 -999 900.4 -849.53 958.15 -798.01 1020.98 -861.02 1088.46 -1009.36 1156.04 -1185.04 1226.45 -1317.43 1297.99 -1356.49 1365.57 -1287.58 1430.33 -1134.41 1489.32 -950.76 1538.29 -797.18 1576.52 -724.03 1600.99 -750.21 1610.61 -862.95 1603.82 -1018.69 1580.01 -1162.59 1543.41 -1248.1 1493.9 -1244.66 1435.4 -1153.35 1377.23 -999.38 1322.07 -827.27 1277.39 -683.68 1252.53 -603.71 1250.85 -605.03 1277.34 -679.96 1333.04 -804.97 1416.51 -940.22 1523.13 -1047.56 1641.6 -1099.91 1763.13 -1080.97 1874.57 -995.47 1961.2 -860.55 2014.28 -706.03 2025.99 -562.98 1996.2 -455.75 1928.94 -403.26 1835.01 -409.03 1734.25 -467.54 1642.84 -560.71 1580.4 -666.12 1563.78 -764.95 1599.29 -834.45 1686.54 -862.52 1812.54 -845.01 1958.5 -783.17 2098.82 -686.92 2205.86 -566.66 2260.44 -439.57 2250.94 -320.09 2181.72 -217.23 2068.17 -142.17 1937.78 -98.22 1826.32 -85.63 1761.69 -101.15 1765.06 -137.96 1840.6 -192.05 1973.98 -252.45 2135.6 -311.37 2285.04 -366.68 2386.12 -409.21 2411.98 -436.08 2357.16 -448.25 2237.08 -442.73 2086.79 -421.32 1953.99 -385.7 1878.51 -338.26 1887.36 -282.46 1981.94 -218.41 2137.08 -151.11 2308.08 -83.32 2442.57 -12.93 2499.74 54.64 2460.81 118.13 2339.85 181.17 2175.82 239 2024.26 291.49 1939.37 342.75 1950.87 388.91 2058.01 430.36 2225.51 470.98 2396.65 507.54 2511.35 540.45 2528.68 573.1 2441.43 602.57 2279.77 628.96Q2279.77 628.96 2279.77 628.96" opacity="0.88"></path><path d="M2206.72 169.08C2038.26 194.27 1913.77 216.31 1873.01 235.44 1928.45 254.83 2059.95 271.81 2223.53 287.04 2367.92 303.33 2445.72 318.98 2433.33 335.08 2334.97 353.74 2180.49 374.61 2016.21 399.18 1889.01 428.32 1834.74 463.2 1865.63 505.29 1970.8 553.5 2116.25 610.13 2258.54 675.69 2358.44 746.49 2385.96 824.78 2333.95 908.94 2215.36 992.78 2060.57 1076.99 1908.04 1157.45 1792.77 1227.35 1741.05 1285.25 1760.73 1326.35 1844.14 1347.29 1966.36 1346.32 2095.3 1322.21 2201.33 1279.43 2256.83 1219.38 2249.37 1148.04 2179.9 1077.55 2062.15 1013.55 1919.76 966.46 1777.66 947.32 1662.66 960.5 1592.68 1010.07 1576.46 1093.23 1612.57 1204.52 1689.2 1333.02 1791.44 1460.85 1896.23 1574.15 1983.81 1656.33 2040.73 1694.51 2054.84 1683.68 2024.37 1625.06 1952.94 1532.37 1850.55 1421.53 1731 1315.85 1606.36 1241.94 1492.73 1216.42 1401.07 1250.92 1337.64 1343.15 1307.29 1479.12 1308.54 1633.9 1338.8 1774.12 1389.98 1871.77 1453.24 1904.25 1523.31 1865.38 1588.66 1765.06 1642.41 1629.49 1682.23 1498.75 1701.82 1408.28 1700.46 1387.86 1679.15 1448.58 1638.93 1578.45 1583.44 1745.82 1514.4 1904.42 1437.28 2011.49 1356.35 2035.5 1271.88 1970.81 1189.96 1837.47 1113.08 1678.39 1039.8 1548.89 974.46 1492.24 917.38 1532.14 866.49 1659.35 823.7 1835.08 787.96 2002.19 757.81 2103.85 733.02 2105.78 712.15 2006.61 695.02 1843.86 679.93 1675.91 665.63 1566.48 653.3 1559.67 640.33 1659.93 625.88 1832.47 612.21 2012.46 596.21 2131.86 577.4 2143.34 558.77 2042.46 536.96 1867.5 511.77 1687.79 486.58 1577.25 458.31 1579.39 427.19 1691.18 396.25 1868.4 362.83 2039.28 327.43 2137.43 292.82 2126.31 257.08 2009.74 221.1 1832.4 187.08 1658.87 154.25 1552.11 123.87 1547.65 97.24 1644.67 74.94 1804.34 58.46 1967.37 47.57 2077.03 44.18 2092.92 49.36 2010.13 60.75 1855.2 80.87 1678.6 109.44 1535.5 141.62 1467.64 179.33 1492.65 220.16 1597.06 257.43 1746.53 291.44 1890.44 317.94 1983.91 330.9 1999.54 329.15 1930.62 309.1 1796.65 269.1 1631.56 208.76 1478.92 128.82 1375.15 34.94 1342.05 -69.89 1383.14 -178.78 1481.76 -280.87 1611.55 -370.2 1735.22 -437.92 1821.49 -476.64 1850.75 -483.05 1813.81 -455.66 1719.06 -400.05 1583.86 -321.73 1435.71 -231.64 1301.6 -146.66 1202 -78.07 1152.83 -39.66 1156.81 -42.2 1209.37 -88.54 1295.11 -176.86 1394.78 -295.85 1492.31 -431.23 1566.88 -563.22 1606.51 -669.59 1606.19 -734.6 1564.28 -746.4 1487.39 -704.43 1383.17 -616.57 1265.49 -500.7 1147.23 -384.54 1036.68 -292.11 945.84 -247.01 880.07 -263.94 841.1 -342.87 829.56 -471.38 841.52 -622.78 874.41 -766.5 920.24 -870.41 972.16 -910.59 1028.23 -878.36 1079.25 -781.55 1121.11 -647.48 1154.44 -510.13 1173.8 -407.91 1179.11 -372.27 1172.24 -415.1 1152.5 -529.22 1122.14 -685.72 1082.23 -844.29 1035.41 -961.46 984.27 -1004.35 927.93 -960.95 870.64 -843.47 814.18 -688.92 755.87 -543 700.32 -452.03 648.42 -447.02 596.28 -531.01 548.43 -680.39 505.12 -848.95 462 -984.22 423.39 -1042.18 389.31 -1003.94 355.31 -880.73 325.7 -712.27 300.51 -555.9 275.32 -463.39 254.85 -463.68 239.09 -556.05 223.42 -708.27 212.6 -870.08 206.66 -990.98 200.91 -1031.32 200.05 -979.4 203.87 -851.33 207.46 -686.08 215.08 -532.76 225.89 -434.79 234.84 -418.98 245.05 -486.19 254.75 -615.48 259.27 -765.96 259.91 -893.35 254.12 -962.69 238.78 -952.8 213.31 -866.74 175.48 -726.04 125.47 -566.88 61.92 -428.21 -15.05 -341.39 -100.56 -325.07 -194.69 -378.27 -293.3 -485.71 -387.75 -616.73 -475.55 -737.8 -549.81 -821.34 -603.14 -845.31 -632.36 -804.53 -633.53 -706.61 -607.89 -571.55 -556.55 -425.98 -484.82 -295.09 -405.39 -202.96 -325.87 -162.56 -259.1 -177.44 -219.66 -239.93 -214.51 -333.82 -250.21 -441.8 -325.87 -540.05 -435.75 -610.63 -567.82 -642.76 -702.06 -628.89 -821.61 -571.65 -907.2 -477.92 -944.21 -361.18 -927.28 -236.65 -859.1 -116.55 -756.41 -15.97 -638.86 56.4 -533.39 96.35 -468.37 102.5 -460.3 79.06 -517.56 30.24 -631.84 -33.62 -782.65 -103 -938.67 -172.56 -1063.52 -231.18 -1129.95 -273.19 -1121.25 -297.06 -1041.88 -298.52 -912.68 -278.46 -770.06 -238.46 -658.54 -181.53 -611.11 -112.14 -647.2 -31.98 -761.16 52.53 -924.55 137.28 -1092.5 222.29 -1215.38 301.66 -1257.85 373.55 -1206.38 439.51 -1079.66 496.12 -918.38 543.72 -777.65 584.05 -709.05 616.41 -738.03 642.23 -859.67 662.3 -1034.68 677.98 -1205.25 690.85 -1312.01 700.22 -1317.3 708.75 -1219.14 717.67 -1053.01 724.9 -883.04 733.83 -772.64 745.21 -766.46 755.99 -869.56 769.91 -1044.2 787.4 -1223.95 804.75 -1338.29 825.94 -1341.75 851.13 -1231.25 876.32 -1051.55 905.21 -875.3 937.61 -771.86 969.87 -780.77 1005.37 -896.38 1043.66 -1071.38 1081.34 -1238.95 1121.11 -1333.04 1162.2 -1318.89 1201.6 -1202.1 1240.99 -1025.59 1279.12 -853.11 1313.76 -744.19 1345.16 -735.21 1371.73 -824.86 1392.54 -979.96 1406.36 -1142.58 1411.74 -1255.59 1409.84 -1281.3 1398.44 -1209.36 1377.19 -1063.5 1350.01 -888.05 1314.83 -737.26 1273.48 -654.09 1232.38 -659.62 1190.97 -747.19 1153.35 -885.28 1119.01 -1086.35 1155.3 -1078.98 1240.4 -866.92 1322.54 -706.97 1420.64 -581.32 1529.02 -516.21 1637.22 -522.46 1739.25 -592.96 1825.54 -705.16 1886.44 -831.92 1917.06 -939.01 1913.15 -1001.5 1876.81 -1006.25 1811.54 -950.16 1726.01 -844.83 1636.03 -707.75 1553.09 -564.68 1492.38 -438.97 1468.15 -347.33 1486.51 -302.69 1550.05 -306.31 1652.04 -353.93 1780.89 -431.92 1918.61 -523.71 2042.24 -616.17 2133.63 -690.69 2176.53 -736.39 2164.14 -748.5 2099.15 -723.53 1994.48 -665.57 1875.15 -579.65 1765.4 -476.16 1691.86 -365.55 1675.46 -254.09 1722.87 -153.28 1828.88 -69.14 1972.42 -3.67 2124.93 39.26 2252.87 60.85 2326.57 62.29 2329.74 47.5 2261.38 21.25 2141.18 -15.54 1999.46 -55.55 1875.12 -94.69 1805.43 -134.15 1810.86 -167.21 1894.41 -192.31 2036.01 -212.17 2199.61 -222.62 2340.9 -224.2 2420.11 -219.65 2415.18 -207.45 2326.93 -189.09 2183.33 -166.15 2026.64 -139.1 1905.95 -109.44 1861.41 -77.22 1907.95 -44.17 2033.84 -11.4 2200.63 22.43 2356.62 54.86 2451.51 85.23 2454.33 115.85 2363.09 143.89 2206.72 169.08Q2206.72 169.08 2206.72 169.08" opacity="0.96"></path><path d="M2137.15 267.34C1976.14 291.33 1852.92 319.31 1803.32 351.27 1841.28 383.35 1953.68 419.61 2105.96 460.11 2254.74 500.92 2355.4 546.14 2379.83 595.69 2321.85 645.36 2197.28 699.01 2040.54 756.05 1892.51 812.01 1791.98 869.89 1762.78 928.24 1810.37 982.71 1918.99 1034.75 2057.84 1082 2238.12 1136.52 2217.48 1176.84 2023.17 1154.5 1873.97 1124.05 1750.42 1081.62 1676.78 1029.72 1665.68 976.13 1715.75 921.87 1811.94 872.9 1933.14 838.12 2049.94 820.2 2137.31 824.8 2178.54 855.43 2163.44 912.64 2095.2 995.45 1984.8 1096.74 1851.81 1211.05 1718.13 1328.34 1602.56 1434.42 1522.85 1520.4 1487.64 1575.38 1498.95 1592.37 1550.64 1569.44 1630.47 1509.12 1726.14 1423.44 1818.94 1323.95 1894.33 1228.26 1943.22 1157.36 1956.45 1124.16 1932.86 1139.81 1874.87 1206.17 1789.25 1316.23 1685.81 1454.54 1572.63 1596.28 1462.3 1718.53 1363.89 1797.88 1282.56 1818.82 1224.9 1777.9 1192.22 1683.7 1184.34 1560.59 1198.47 1435.93 1229.75 1341.74 1275.67 1305.67 1328.19 1339.36 1381.61 1440.32 1434.53 1586.7 1479.44 1746.21 1513.45 1880.11 1537.21 1954.09 1546.96 1950.03 1543.14 1868.69 1527.18 1735.21 1499.38 1586.76 1461.96 1468.26 1415.59 1418.76 1363.23 1455.22 1307.24 1571.55 1246.74 1735.18 1185.79 1899.5 1126 2014.74 1065.02 2045.26 1007 1981.63 952.62 1843.81 898.69 1679.15 848.93 1541.52 803.4 1479.36 758.67 1516.79 717.96 1643.04 681.05 1817.17 644.67 1979.34 611.66 2073.64 581.81 2065.68 552.13 1958.43 525.3 1788.91 501.31 1618.3 477.32 1510.63 456.45 1504.48 438.76 1600.06 421.22 1762.96 407.16 1932.83 396.82 2049.41 387 2073.14 381.32 1995.24 380.04 1843.38 381.61 1597.84 408.08 1559.88 431.24 1776.14 446.62 1924.47 463.58 2013.69 480.56 2016.26 493.02 1931.23 502.32 1783.51 506.11 1616.22 500.95 1474.93 486.66 1398.25 461.04 1403.18 423.29 1485.12 372.48 1616.46 308.21 1757.91 233.69 1871.67 148.82 1924.33 56.51 1902.4 -36.29 1810.52 -127.64 1670.62 -211.76 1515.45 -307.13 1332.21 -355.72 1339.82 -299.41 1499.67 -236.68 1618.36 -161.37 1710.77 -82.51 1757.68 -13.4 1750.27 38.58 1688.33 63.66 1583.58 54.33 1451.7 8.92 1315.43 -71.41 1194.94 -178.24 1104.57 -301.74 1056.15 -427.32 1051.58 -537.06 1088.12 -617.89 1155.14 -657.53 1238.95 -650.64 1328.65 -598.45 1407.38 -509.56 1464.38 -402.57 1494.41 -295.43 1491.63 -210.01 1457.41 -166.74 1394.69 -175.75 1310.35 -240.21 1212.78 -350.79 1107.12 -489.92 1003.94 -632.51 909.84 -750.1 827.16 -820.64 761.97 -829.07 715.21 -774.94 686.37 -669.96 674.79 -538.35 677.42 -413.93 693.4 -325.91 717.64 -298.65 746.38 -342.47 780.35 -449.63 813.29 -597.17 842.84 -749.55 871.5 -870.66 893.95 -929.69 909.62 -911.91 921.82 -821.73 926.96 -682.97 925.64 -477.28 915.8 -452.86 869.49 -659.67 837.7 -816.7 814.74 -932.69 790.78 -973.05 766.45 -925.86 741.85 -803.85 717.43 -642.84 693.44 -492.79 669.45 -398.92 646.17 -388.01 623.39 -462.68 600.34 -598.84 577.23 -755.31 553.47 -887.73 528.61 -956.47 502.05 -942.73 472.85 -850.8 441.35 -706.08 405.86 -548.16 365.39 -417.98 321.47 -349.18 271.49 -356.88 214.88 -437.19 154.8 -565.67 88.37 -706.87 16.19 -825.41 -56.87 -888.97 -132.88 -882.07 -209.44 -806.14 -280.76 -678.62 -347.09 -528.88 -404.65 -338.24 -463.6 -307.31 -471.18 -459.01 -415.29 -582.53 -360.58 -687.21 -296.22 -751.03 -228.77 -761.78 -169.4 -715.66 -122.66 -621.61 -96.91 -494.8 -99.65 -357.73 -133.2 -232.39 -198.9 -135.97 -291.56 -82.45 -405.31 -75.84 -529.34 -114.16 -647.47 -186.66 -748.14 -278.39 -817.6 -375.84 -845.95 -460.34 -829.74 -519.14 -770.83 -545.25 -681.79 -533.14 -576.21 -485 -474.24 -405.56 -399.4 -304.47 -366.58 -192.83 -387.47 -79.07 -462.7 24.43 -582.61 109.94 -727.98 173.42 -870.44 210.68 -984.46 222.46 -1046.26 210.06 -1043.31 178.53 -976.8 133.79 -862.1 78.66 -730.15 21.89 -612.56 -31.07 -542.07 -79.14 -541.51 -115.55 -614.62 -138.4 -747.89 -148.6 -908.86 -143.85 -1058.78 -125.47 -1158.32 -94.78 -1180.86 -53.46 -1120.8 -4.14 -995.11 52.95 -843.42 113.96 -710.26 176.57 -638.75 242.17 -654.83 306.35 -756.52 367.81 -916.27 429.19 -1085.47 486.47 -1212.83 539.31 -1257.34 590.9 -1205.17 637.93 -1072.91 680.65 -904.63 722.16 -759.78 759.85 -687.75 794.15 -716.19 827.76 -837.49 858.57 -1010.94 886.89 -1176.25 915.02 -1274.27 941.04 -1269.37 965.03 -1161.74 989.02 -991.14 1010.7 -820.4 1029.95 -710.71 1049.01 -700.3 1065.27 -790.98 1078.39 -948.39 1095.16 -1177.97 1106.61 -1126.55 1099.57 -879.74 1091.98 -732.65 1079.54 -658.64 1062.57 -677.7 1045.53 -781.5 1025.33 -933.31 1003.25 -1083.42 984.17 -1186.22 966.22 -1208.12 951.7 -1143.05 944.96 -1008.98 945.73 -843.92 956.61 -692.85 979.81 -593.91 1016.12 -571.27 1066.83 -625.71 1130.19 -740.08 1206.57 -879.12 1294.03 -1004.11 1386.39 -1083.69 1481.98 -1095.06 1575.32 -1035.78 1658.26 -918.38 1727.41 -769.6 1776.78 -621.52 1801.98 -502.33 1801.06 -435.56 1773.25 -429.81 1723.42 -482.47 1654.92 -577.2 1575.5 -690.61 1498.18 -800.59 1430.72 -881.52 1384.19 -917.97 1368.97 -903.71 1389.05 -839.83 1446.61 -737.48 1536.84 -610.35 1652.04 -478.68 1779.4 -360.08 1901.05 -266.84 2002.69 -210.27 2069.33 -192.94 2091.05 -213.59 2065.04 -264.55 1995.31 -334.96 1896.65 -416.57 1785.43 -494.54 1683.6 -558.85 1614.53 -604.69 1592.52 -624.29 1626.49 -616.71 1713.52 -583.1 1840.53 -526.37 1985.44 -452.19 2119.59 -363.84 2217.97 -269.61 2259.92 -175.51 2237.4 -83.1 2155.43 0.38 2032.64 72.4 1900.49 133.63 1789.57 181.09 1729.23 215.68 1737.92 238.58 1816.05 250.97 1948.14 255.32 2102.88 251.59 2243.85 243.54 2335.58 233.48 2354.71 219.54 2296.27 206.51 2175.35 195.78 2026.69 183.99 1890.13 175.99 1805.23 172.32 1798.52 168.79 1873.16 169.96 2010.33 175.87 2171.54 182.1 2311.29 192.91 2388.36 208.22 2379.85 223.64 2287.2 243.35 2137.15 267.34Q2137.15 267.34 2137.15 267.34" opacity="0.76"></path><path d="M2067.72 686.53C1914.23 709.32 1792.9 733.04 1735.67 757.47 1757.2 781.66 1850.02 806.05 1987.95 830.08 2135.45 853.13 2252.25 874.84 2308.58 894.33 2290.99 911.66 2203.48 925.44 2068.34 934.62 1917.63 940.39 1787.53 940.3 1707.31 933.55 1693.75 922.87 1747.4 905.23 1852.68 880.71 1985.05 853.81 2111.25 821.84 2202.27 786.45 2238.79 753.5 2211.4 721.68 2126.33 694.25 2000.11 676.87 1858.36 669.93 1728.14 676.95 1632.03 700.59 1586.76 741.77 1597.03 801.42 1658.56 876.47 1755.77 965.97 1867.91 1065.8 1975.19 1167.12 2055.27 1265.88 2094.08 1354.05 2085.49 1422.41 2029.69 1466.42 1935.88 1480.74 1816.5 1464.63 1689.65 1418.98 1572.27 1348.55 1477.29 1265.33 1416.48 1177.94 1394.09 1099.79 1410.18 1046.32 1458.69 1025.86 1529.73 1046.13 1614.5 1108.06 1698.4 1206.78 1770.33 1331.44 1823.71 1463.4 1849.98 1585.68 1846.93 1678.96 1815.14 1727.45 1757.35 1723.91 1679.48 1668.42 1586.22 1573.84 1486.58 1457.33 1387.81 1343.42 1293.69 1259.72 1211.77 1224.59 1145.37 1250.3 1095.35 1335.36 1063.66 1465.68 1049.03 1616.31 1050.61 1754.47 1065.17 1851.67 1089.21 1885.4 1122.25 1848.73 1158.62 1750.43 1195.15 1615.02 1232.81 1480.03 1266.1 1380 1293.48 1344.47 1317.05 1386.75 1332.96 1498.67 1341.25 1653.71 1342.11 1869.82 1304.52 1880.23 1271.08 1670.53 1244.51 1523.85 1215.84 1427.67 1186.13 1413.78 1154.77 1489.07 1123.52 1632.29 1093.12 1800.72 1062.05 1941.71 1032.54 2011.13 1005.05 1985.66 977.39 1873.74 952.07 1710.3 929.28 1548.79 906.49 1444.26 886.5 1430.61 869.14 1510.51 851.63 1657.85 836.42 1822.95 823.1 1952.54 809.1 2006.83 796.28 1968.04 783.93 1849.26 769.93 1686.43 755.23 1528.9 738.83 1422.36 719.34 1396.14 696.63 1455.25 669.5 1579.05 637.78 1731.36 600.22 1865.49 555.89 1943.17 506.26 1943.43 449.44 1865.06 385.41 1729.47 317.59 1570.44 244.31 1428.68 167.16 1337.56 91.13 1316.5 15.76 1367.06 -55.76 1472.29 -118.29 1605.67 -170.82 1731.05 -209.81 1817.86 -232.6 1846.7 -237.79 1809.19 -224.07 1713.99 -193.97 1579.51 -147.78 1433.69 -88.79 1304.27 -25.14 1212.88 39.97 1174.9 99.33 1192.49 143.3 1259.46 167.83 1358.29 167.02 1467.56 137.45 1568.46 79.23 1639.55 -5.41 1668.81 -108.6 1651.87 -223.08 1590.31 -337.72 1493.99 -438.63 1374.46 -516.3 1249.16 -560.81 1133.41 -566.84 1037.94 -533.7 973.71 -465.64 944.21 -375.17 949.58 -274.46 984.97 -180.44 1042.15 -111.97 1114.8 -80.73 1190.26 -95.87 1259.18 -158.4 1317.01 -261.39 1354.88 -390.73 1370.04 -524.92 1362.54 -643.35 1332.16 -725.2 1282.39 -755.8 1215.54 -729.98 1137.49 -652.41 1053.47 -540.74 964.9 -416.62 878.78 -307.11 798.47 -238.75 723.44 -227.13 658.37 -278.47 603.8 -384.29 558.23 -524.34 523.02 -669.57 496.81 -787.72 478.63 -853.23 467.1 -850.53 460.33 -781.16 458.77 -660.91 459.37 -518.99 460.54 -392.64 464.32 -312.88 466.82 -301.98 467.04 -364.98 468.25 -487.4 466.22 -639.4 460.45 -781.84 454.92 -878.07 445.31 -901.88 431.38 -846.94 417.48 -726.76 399.19 -573.27 376.4 -429.73 353.61 -335.29 326.59 -314.36 295.48 -372 264.4 -490.95 229.3 -638.37 190.43 -776.49 151.81 -867.73 109.78 -889.16 64.86 -836.03 20.93 -721.48 -24.92 -574.26 -71.68 -429.1 -115.83 -320.58 -159.04 -272.4 -199.67 -293.93 -235.1 -377.19 -265.36 -499.99 -288.53 -634.16 -303.68 -746.27 -309.38 -810.88 -304.26 -814.36 -290.15 -754.79 -265.08 -645.13 -229.54 -506.59 -188.73 -367.21 -141.62 -253.06 -91.53 -183.46 -46 -169.5 -5.91 -209.76 23.52 -294.82 35.88 -404.61 29.39 -516.59 0.6 -611.33 -50.84 -669.06 -124.43 -679.95 -217.37 -642.14 -321.42 -561.02 -431.4 -449.55 -537.96 -322.38 -629.03 -198.63 -697.71 -94.2 -735.69 -20.14 -738.82 15.3 -706.55 11.55 -642.35 -28.53 -557.88 -95.43 -463.16 -177.35 -373.49 -264.69 -307.04 -342.77 -274.62 -401.75 -286.08 -436.4 -343.74 -440.8 -442.5 -415.21 -570.31 -361.82 -706.49 -285.93 -831.47 -194.84 -923.81 -93.76 -966.76 7.66 -953.34 102.6 -885.7 187.71 -780.02 256.65 -657.11 307.46 -544.67 339.86 -471.52 353.78 -455.2 351.62 -504.35 334.45 -611.47 306.87 -756.3 272.78 -908.22 232.47 -1032.01 192.07 -1100.23 154.48 -1095.89 118.48 -1021.5 89.2 -895.52 67.64 -751.3 51.67 -630.5 44.3 -565.97 44.99 -579.06 51.79 -669.58 65.55 -815.57 85.03 -978.74 109.22 -1113.41 137.35 -1182.38 168.12 -1164.98 201.78 -1067.27 236.48 -917.5 271.2 -761.34 307.36 -649.22 342.45 -616 375.79 -674.77 409.69 -808.85 441.24 -977.34 470.05 -1126.99 498.99 -1209.2 524.95 -1196.74 547.74 -1092.25 570.53 -930.75 589.88 -766.15 605.96 -651.92 622.15 -624.12 635.32 -690.1 645.82 -826.57 656.86 -990.49 665.84 -1128.12 673.4 -1196.76 682.39 -1176.22 691.05 -1072.32 700.37 -916.85 712.59 -754.52 727.06 -632.31 745.06 -582.94 767.77 -618.08 795.79 -724.29 830.34 -868.49 871 -1010.67 919.28 -1108.77 975.7 -1136.26 1037.71 -1085.94 1106.98 -970.15 1182.47 -818.46 1259.56 -666.34 1338.96 -550.39 1417.76 -495.15 1490.33 -510.32 1555.88 -588.06 1610.48 -705.88 1650.06 -836.18 1673.01 -945.3 1676.91 -1008.32 1662.4 -1011.99 1629.19 -953.97 1579.2 -846.55 1519.39 -708.92 1452.48 -567.86 1385.3 -447.92 1328.1 -367.06 1285.48 -337.36 1264.69 -358.93 1271.71 -425.29 1308.07 -519.88 1373.98 -623.42 1464.23 -719.67 1572.9 -789.24 1690.11 -821.32 1801.9 -811.73 1897.95 -760.7 1966.47 -675.98 1998.63 -566.56 1990.86 -447.22 1943.7 -331.39 1866.19 -228.35 1768.59 -149.42 1666.76 -99.4 1580.64 -79.81 1524.07 -89.29 1510 -122.52 1544.61 -175.56 1625.25 -238.58 1742.04 -303.61 1876.08 -367.13 2007.08 -419.76 2112.47 -457.4 2173.06 -479.64 2178.55 -482.86 2127.5 -468.02 2031.89 -436.56 1910.15 -390.62 1788.31 -333.75 1695.36 -266.84 1651.56 -195.03 1669.85 -121.63 1749.27 -45.8 1875.23 27.08 2022.26 95.33 2157.93 161.2 2253.06 220.63 2285.44 273.51 2248.11 322.45 2149.44 365.14 2013.07 402.36 1874.65 436.16 1767.85 465.74 1721.4 492.13 1749.51 516.36 1846.35 538.71 1988.98 560.06 2140.91 580.42 2263.27 600.74 2323.19 621.57 2304.55 642.15 2211.26 663.74 2067.72 686.53Q2067.72 686.53 2067.72 686.53" opacity="0.53"></path><path d="M1998.22 412.48C1852.36 434.07 1733.58 451.38 1670.06 464.5 1676.46 477.62 1749.78 486.56 1870.99 491.46 2012.01 496.46 2137.96 497.63 2219.69 495.31 2239.54 493.62 2192.36 489.15 2089.42 482.66 1952.86 478.11 1812.44 473.06 1697.34 468.85 1630.03 468.88 1622.93 472.1 1674.61 480.31 1773.43 495.61 1896.09 518.44 2016.35 550.42 2111.17 591.43 2159.87 642.76 2153.42 704.75 2092.99 774.2 1989.32 852.07 1861.11 936.24 1728.92 1020.72 1615.39 1104.87 1537.5 1184.19 1505.43 1252.11 1521.79 1306.52 1580.24 1342.86 1670.34 1358.22 1773.97 1351.17 1873.23 1321.24 1954.02 1273.02 2001.65 1208.71 2009.46 1134.51 1976.48 1061.62 1906.61 995.87 1809.42 946.75 1695.23 923.98 1578.72 931.56 1472.5 972.93 1385.61 1045.94 1326.97 1145.8 1299.71 1263.34 1304.19 1383.65 1336.62 1494.59 1390.26 1581.6 1459.63 1632.19 1533.83 1640.14 1604.27 1603.56 1666.21 1530.1 1711.08 1430.4 1735.31 1321.71 1738.17 1226.51 1718.38 1161.32 1678.27 1141.54 1619.97 1174.77 1548.2 1258.29 1467.9 1380.65 1381.24 1520.07 1294.79 1653.22 1212.43 1754.83 1134.81 1804.7 1066.71 1793.51 1009.4 1723.12 962.23 1610.78 926.75 1480.24 901.99 1362.11 887.23 1287 881.06 1273.37 881.57 1328.35 888.97 1441.69 900.04 1589.46 912.96 1737.94 929.29 1851.05 945.05 1901.99 959.06 1877.31 974 1784.37 985.86 1646.42 994.12 1500.18 1002.09 1387.35 1006.06 1338.47 1006 1369.55 1005.37 1474.16 1000.83 1625.11 992.56 1781.41 983.9 1898.87 971.8 1944.27 956.42 1903.4 940.93 1788.47 922.37 1631.71 900.78 1479.29 879.19 1378.17 854.82 1357.85 827.67 1422.71 800.4 1553.65 770.14 1710.6 736.74 1847.78 702.97 1927.29 665.75 1925.75 624.97 1844.61 583.62 1706.2 538.57 1548.45 489.88 1413.19 440.9 1334.5 388.69 1331.38 333.78 1401.45 279.79 1525.51 224.44 1668.46 168.94 1792.73 116.85 1868.11 67.02 1874.26 21.3 1810.3 -17.51 1690.69 -49.23 1543.29 -71.88 1400.95 -84.54 1292.87 -86.01 1241.33 -75.31 1253.66 -54.45 1324.76 -22.33 1435.26 19.83 1558.96 66.74 1670.69 118.26 1744.51 170.53 1765.77 216.44 1730.43 254.36 1644.4 279.39 1523.76 286.22 1387.63 273.3 1259.84 238.33 1159.75 181.99 1100.22 105.61 1088.34 12.78 1121.4 -88.55 1192.22 -193.02 1285.19 -292.01 1383.46 -375.27 1473.54 -436.68 1538.9 -469.46 1570.52 -470.49 1564.91 -439.48 1521.76 -379.51 1447.21 -300.21 1348.36 -209.92 1237.43 -121.23 1125.93 -49.53 1021.83 -4.44 935.93 4.52 873.65 -27.29 837.2 -98.18 827.57 -201.45 841.66 -323.2 877.01 -448.52 926.43 -559.52 983.32 -638.86 1044.88 -675.31 1102.29 -662.51 1150.94 -603.88 1190.21 -508.77 1214.78 -394.15 1224 -283.51 1218.99 -196.55 1199.26 -151.94 1166.99 -161.32 1123.22 -224.96 1071 -333.81 1013.17 -468.1 949.44 -603.89 884.31 -714.89 819.86 -778.76 754.25 -782.91 691.9 -725.88 633.72 -621.06 576.92 -489.96 525.08 -361.73 478.19 -267.13 433.29 -227.29 392.98 -253.46 356.78 -341.52 322.13 -472.79 290.79 -618.09 262.22 -743.57 234.45 -820.11 208.71 -828.68 184.6 -767.32 160.71 -649.63 138.02 -503.77 116.43 -366.86 94.84 -272.52 74.6 -242.72 55.85 -284.14 37.31 -385.17 20.69 -520.4 6.41 -712.37 -12.28 -764.08 -29.85 -601.31 -26.05 -458.56 -19.88 -327.71 -8.41 -235.46 8.42 -199.47 26.62 -225.2 49.38 -304.41 75.82 -420.19 101.1 -545.85 127.47 -654.97 152.89 -726.82 172.39 -745.56 186.74 -708.06 193.09 -620.93 187.96 -500.04 170.74 -366.81 139.3 -242.41 93.62 -147.77 33.09 -96.21 -41.61 -93.71 -125.71 -137.54 -218.05 -217.04 -314 -318.93 -405.28 -423.28 -488.56 -512.62 -557.2 -574.41 -604.57 -597.24 -627.65 -578.23 -623.33 -519.7 -593.17 -429.41 -538.79 -319.29 -465.59 -200.88 -384.98 -89.19 -304.33 4.27 -235.08 71.99 -190.15 107.8 -175.96 111.37 -198.63 84.35 -258.53 33.37 -351.51 -33.23 -468.51 -109.26 -593.7 -183.25 -712.89 -247.18 -809.22 -296.93 -867.79 -325.54 -880.69 -331.13 -845.19 -313.98 -769.13 -274.94 -664.6 -217.7 -550.95 -144.88 -452.78 -62.52 -388.45 24.17 -373.99 113.1 -416.12 197.74 -510.02 274.75 -641 343.78 -783.96 400.99 -912.9 445.97 -1001.58 479.42 -1031.49 501.08 -996.69 512.54 -904.44 514.26 -777.94 508.73 -645.47 498.13 -539.89 481.75 -489.94 463.51 -509.19 445.14 -596.73 424.65 -733.17 406.25 -887.37 390.88 -1021.73 375.62 -1102.1 364.37 -1108.33 357.35 -1038 351.29 -911.08 349.53 -760.68 351.89 -628.58 355.17 -553.74 362.18 -557.49 372.62 -641.24 383.57 -782.67 397.5 -942.85 414.14 -1075.97 430.93 -1143.03 450.16 -1123.84 471.75 -1022.75 493.34 -870.35 517.04 -712.47 542.89 -595.36 568.89 -552.29 597.33 -594.43 628.43 -707.6 660.05 -859.62 694.79 -1005.27 732.92 -1103.57 771.97 -1128.36 814.81 -1072.16 861.59 -951.01 909.32 -796.45 960.94 -649.17 1016.17 -545.92 1071.51 -510.93 1129.5 -550.6 1189.16 -651.52 1246.7 -787.8 1303.7 -922.46 1358.39 -1021.79 1407.32 -1062.76 1450.73 -1034.2 1486.43 -943.28 1512.38 -809.34 1527.67 -662.08 1530.69 -532.17 1522.17 -444.19 1500.92 -414.56 1467.35 -445.15 1425.79 -527.49 1376.09 -640.54 1321.54 -759.07 1269.23 -860.54 1220.72 -922.37 1181.18 -933.14 1157.21 -890.89 1150.88 -802.45 1165.84 -683.25 1203.54 -550.54 1263.66 -426.07 1344.31 -327.1 1439.13 -265.02 1543.39 -246.73 1649.04 -270.38 1745.28 -330.46 1825.23 -413.77 1880.54 -505.78 1905.28 -595.03 1897.08 -665.92 1856.29 -709.32 1789.74 -721.08 1704.27 -698.4 1611.35 -644.76 1526.73 -564.75 1461.21 -467.49 1426.7 -362.5 1431.7 -256.18 1477.79 -159.16 1562.06 -77.65 1673.88 -14.44 1799.94 26.45 1922.72 45.5 2023.12 43.56 2087.04 24.09 2103.8 -8.37 2071.5 -52.23 1995.28 -100.41 1888.45 -148.43 1772.79 -196.14 1668.61 -237.06 1597.3 -269.1 1575.63 -293.67 1609.32 -307.13 1695.2 -309.82 1818.35 -303.48 1957.13 -287.56 2085.09 -263.7 2176.49 -232.74 2213.46 -196.37 2187.75 -156.43 2105.79 -112.26 1984.26 -66.85 1849.85 -21.58 1734.51 25.61 1663.66 71.16 1655.32 114.27 1713.46 158 1826.09 198.58 1968.67 235.63 2108.17 272.79 2212.43 306.22 2256.01 335.74 2228.38 365.27 2135.13 390.88 1998.22 412.48Q1998.22 412.48 1998.22 412.48" opacity="0.34"></path><path d="M1928.65 108.21C1790.51 128.61 1674.92 149.56 1606.43 171.2 1599.21 193.04 1653.53 215.96 1756.39 240.33 1886.48 265.46 2014.76 292.75 2114.45 322.77 2166.25 354.3 2158.82 389.4 2094.38 428.62 1985.52 469.98 1853.58 516.04 1723.57 567.06 1618.55 620.06 1557.33 677.73 1548.94 739.57 1593.48 801.68 1680.18 866.13 1791.3 931.38 1907.57 993.03 2006.05 1051.93 2069.57 1105.55 2088.15 1150.17 2057.62 1185.23 1983.43 1208.19 1876.42 1217.81 1753.41 1212.87 1632.4 1192.6 1528.98 1159.91 1457.5 1114.51 1425.47 1059.05 1435.15 1000.63 1482.22 941.05 1557.2 886.06 1649.81 843.92 1744.26 817.56 1827.17 812.25 1889.24 831.69 1920.58 876.49 1917.83 946.11 1881.44 1035.16 1815.22 1138.87 1726.77 1248.9 1623.51 1353.19 1516.69 1443.6 1415.84 1510.05 1327.51 1544.57 1259.59 1543.65 1215.55 1506.65 1196.66 1440.1 1202.19 1351.49 1228.62 1253.46 1273.26 1163.48 1329 1094.03 1389.67 1058.45 1452.29 1065.92 1508.97 1117.76 1555.51 1209.82 1590.9 1329.08 1610.75 1459.79 1614.56 1581.9 1603.12 1674.71 1576.61 1723.89 1537.26 1720.27 1486.18 1665.59 1426.77 1569.32 1362 1449.86 1292.07 1333.3 1221.5 1242.13 1152.46 1197.31 1083.99 1211.27 1020.02 1283.4 961.44 1402 906.57 1543.39 857.98 1679.99 815.48 1782.87 777.4 1829.57 744.85 1810 717.04 1727.91 692.91 1603.65 672.34 1465.09 654.37 1345.87 638.88 1277.05 624.79 1275.78 611.3 1344.88 599.16 1468.88 586.69 1618.7 573.3 1757.56 560.49 1850.2 546.18 1873.01 530.03 1819.03 514.01 1702.71 495.88 1553.14 475.49 1409.8 455.1 1312.34 432.69 1286.19 408.43 1336.83 384.31 1450.86 358.61 1596.78 331.7 1736.29 305.36 1834.98 278.41 1866.82 251.44 1824.75 225.81 1719.44 201.11 1576.79 178.15 1431.12 157.65 1315.55 140.11 1256.39 126.49 1264.85 116.55 1337.5 111.71 1454.75 112.8 1588 118.3 1708.08 130.28 1786.17 148.97 1805.57 171.35 1762.42 199.54 1665.32 232.68 1534.47 266.37 1394.37 302.05 1272.59 337.54 1190.57 367.88 1161.17 393.32 1187.19 410.91 1260.03 416.78 1365.32 410.3 1480.11 389.26 1582.38 352.97 1655.28 301.15 1684.03 234.34 1664.33 156.37 1599.06 68.8 1498.38 -24.14 1377.76 -115.14 1252.52 -200.64 1140.97 -274.46 1056.49 -330.06 1007.31 -364.18 997.73 -373.27 1025.03 -357.2 1084.09 -316.65 1163.21 -255.04 1250.02 -180.92 1335.14 -100.18 1404.99 -22.35 1451.51 40.66 1470.95 82.12 1459.81 94.43 1420.13 73.1 1355.05 18.37 1271.32 -66.37 1176.61 -171.96 1076.05 -288.38 979.07 -402.22 891.77 -498.43 816.9 -566 759.7 -595.42 721.21 -583.12 701.28 -530.62 698.97 -445.38 711.37 -342.56 737.4 -236.95 771.96 -146.53 811.21 -88.93 855.01 -74.19 897.31 -107.71 935.53 -186.18 970.97 -298.78 998.94 -428.3 1018.74 -552.67 1032.42 -651.75 1037.49 -707.8 1034.66 -710.92 1025.68 -660.33 1010.13 -565.01 989.33 -444.73 963.98 -321.59 935.19 -220.59 904.28 -164.02 870.65 -163.53 836.44 -221.31 802.61 -326.97 767.48 -460.26 733.74 -594.39 702.03 -701.28 669.83 -758.66 640.19 -753.48 613.47 -687.03 586.65 -572.47 562.95 -434.33 542.56 -257.38 513.75 -240.78 473.13 -402.73 460.43 -536.18 452.42 -652.91 446.73 -728.86 442.75 -749.52 437.47 -710.13 432.89 -619.25 428.05 -494.4 420.51 -360.01 411.18 -241.23 398.78 -158.86 381.83 -127.13 360 -149.46 331.98 -220.6 297.81 -324.81 256.14 -441.57 206.27 -550.87 150.27 -631.25 86.53 -668.96 15.75 -658.17 -57.8 -599.93 -135 -504.05 -213.23 -384.44 -286.91 -259.83 -355.45 -148.04 -414.96 -39.79 -476.18 -81.02 -485.45 -203.21 -429.39 -300.08 -373.52 -389.41 -307.43 -458.95 -237.19 -501.03 -172.81 -508.69 -118.84 -481.54 -82.94 -422.39 -72.43 -337.94 -89.88 -237.51 -137.3 -129.32 -211.8 -25 -309.01 66.63 -420.86 139.97 -534.39 189.03 -639.6 212.34 -724.08 209.98 -776.81 185.02 -792 142.45 -766.89 85.62 -706.49 22.74 -618.34 -39.91 -515.77 -99.52 -417.84 -148.73 -339.13 -184.23 -295.08 -205.5 -296.62 -209.6 -345.87 -197.13 -438.5 -169.16 -560.51 -127.35 -694.27 -74.55 -817.75 -11.85 -908.77 56.49 -952.2 127.47 -939.39 201.09 -873.96 272.74 -767.96 340.55 -642.81 405.66 -526.91 464.58 -443.92 516.88 -414.03 564.14 -446.67 604.57 -537.16 638.72 -668.75 667.89 -813.5 691.84 -941.37 711.58 -1023.74 727.56 -1041.91 740.76 -991.56 752.21 -883.86 761.32 -746.05 769.93 -610.34 778.84 -511 786.56 -474.91 795.45 -511.77 806.05 -614.49 816.18 -758.04 828.52 -907 843.39 -1023.08 858.15 -1075.75 875.66 -1050.64 896.05 -953.18 916.44 -809.84 939.47 -659.24 964.99 -540.88 990.4 -484.86 1018.06 -504.61 1047.65 -593.22 1076.77 -728.05 1107.31 -872.85 1138.71 -990.88 1168.91 -1054 1199.09 -1045.79 1228.44 -969.1 1255.45 -842.01 1280.36 -694.65 1302.13 -560.67 1320.14 -468.88 1333.58 -438.68 1341.4 -473.87 1344.24 -565.25 1340.43 -689.46 1329.35 -817.6 1313.25 -922.94 1290.11 -980.96 1260.33 -979.98 1227.86 -920.21 1191.12 -813.26 1151.93 -680.1 1115.38 -544.05 1081 -430.38 1051.78 -357.51 1032.47 -335.7 1023.65 -365.9 1028.16 -438.98 1048.17 -541.36 1084.24 -651.57 1136.93 -749.6 1203.86 -820.42 1283.96 -850.3 1373.9 -835.08 1466.89 -776.83 1559.53 -683.98 1645.53 -569.93 1717.28 -447.82 1770.83 -334.44 1801.16 -242.47 1805.83 -180.04 1784.13 -153.03 1737.52 -160.83 1672.6 -200.55 1594.37 -263.59 1511.61 -339.91 1436.6 -421.96 1376.92 -497.09 1341.85 -556.96 1338.78 -597.4 1369.83 -612.44 1434.59 -601.55 1526.81 -565.92 1638.11 -508.67 1756.21 -435.1 1865.66 -348.68 1954.1 -257.13 2009.45 -166.23 2024.21 -78.29 1996.42 0.09 1929.74 66.26 1836.14 120.01 1728.94 158.92 1625.91 183.74 1546.63 195.21 1504.16 195.05 1508.32 185.77 1560.98 167.49 1655.48 144.37 1778.02 118.91 1908.03 89.85 2024.64 62 2107.29 36.89 2141.12 12.04 2120.02 -8.23 2047.36 -23.48 1938.29 -36.75 1812.7 -44.69 1695.72 -47.59 1612.72 -48.36 1580.25 -44.66 1606.89 -37.08 1688.82 -27.99 1810.57 -15.85 1948.05 -1.26 2072.61 14.07 2158.51 31.17 2186.78 49.6 2151.36 68.24 2058.81 87.82 1928.65 108.21Q1928.65 108.21 1928.65 108.21" opacity="0.75"></path><path d="M1859.22 509.86C1728.86 529.05 1617.02 551.55 1544.8 577.2 1525.49 602.79 1561.68 631.37 1645.23 662.68 1760.77 693.64 1885.08 726.92 1994.94 762.01 2071.45 796.11 2099.82 831.21 2075.64 866.5 2003.43 899.61 1895.72 931.59 1771.08 961.29 1649.29 987.11 1550.38 1008.92 1489.06 1025.43 1473.66 1036.26 1504.74 1040.21 1575.05 1036.27 1673.3 1025.84 1781.59 1007.11 1882.35 980.06 1961.43 948.24 2005.34 910.07 2008.05 867.18 1969.4 824.89 1894.46 782.71 1793.7 743.9 1679.01 714.01 1565.59 693.8 1466.69 686.75 1392.21 696.06 1350.18 722.56 1342.93 767.45 1369.67 828.94 1424.4 906.01 1498.41 995.42 1583.73 1090.03 1667.82 1186.01 1740.84 1276.42 1796.49 1352.66 1827.1 1410.11 1830.09 1443.02 1805.55 1448.34 1755.46 1425.28 1684.81 1375.45 1598.23 1306.12 1503.76 1223.16 1408.54 1136.49 1317.17 1059.61 1236.99 1000.99 1172.01 970.49 1124.03 975.27 1095.28 1016.76 1085.1 1093.04 1092.77 1195.54 1115.24 1313.78 1148.94 1433.23 1192.52 1536.89 1240.26 1611.88 1288.43 1646.87 1336.56 1637 1379.22 1583.55 1414.34 1494.6 1442.61 1386.85 1460.74 1277.03 1468.6 1185.17 1467.41 1130.27 1456.41 1122.75 1436.79 1167.12 1409.35 1257.61 1375.39 1380.4 1336.52 1514.84 1292.55 1636.09 1246.01 1722.79 1198.29 1757.99 1148.1 1735.17 1098.48 1658.38 1050.35 1542.68 1001.51 1413.58 955.11 1296.91 911.55 1218.54 868.16 1197.45 827.91 1239.05 790.87 1336.5 754.21 1469.52 720.69 1610.24 690.23 1727.67 660.04 1795.2 632.7 1797.35 608.14 1732.62 583.67 1616.46 561.82 1474.59 542.63 1340.29 523.44 1246.74 507.12 1215.63 493.69 1252.97 480.34 1349.96 470.03 1482.49 462.84 1619.46 455.92 1730.92 452.33 1790.64 452.17 1786.07 452.4 1718.77 456.14 1603.45 463.33 1465.15 470.7 1331.98 481.23 1231.53 494.53 1182.74 507.14 1193.97 521.56 1260.61 536.94 1366.89 549.84 1491.81 561.92 1608.24 571.83 1693.22 576.63 1731.53 576.92 1714.82 571.1 1646.79 557.46 1538.98 535.62 1410.59 504.41 1283.27 464.13 1176.2 414.03 1106.44 354.25 1082.55 287.62 1106.2 213.9 1170.48 135.2 1262.34 56.47 1367.64 -21.35 1467.03 -94.51 1544.97 -157.79 1591.24 -209.33 1597.58 -245.54 1563.74 -263.91 1493.79 -263.18 1397.07 -242.66 1285.83 -205.13 1171.18 -151.86 1067.2 -86.82 983.97 -17.92 927.73 50.78 903.08 112.2 909.27 157.7 944.02 183.24 1000.24 183.85 1069.67 156.93 1146.38 103.01 1219.47 24.69 1281.59 -70.98 1329.1 -177.08 1355.71 -283.75 1359.99 -379.1 1342.33 -454.51 1303.82 -501.23 1248.1 -513.97 1177.6 -491.23 1098.16 -435.32 1014.71 -355 929.1 -259.43 847.64 -161.86 773.44 -78.22 706.76 -19.66 651.33 3.36 607.61 -14.96 574.85 -73.71 553.47 -166.87 542.01 -281.7 539.98 -403.26 545.17 -513.99 555.53 -596.77 571.67 -639.51 589.96 -634.94 608.7 -584.45 629.79 -495.54 649.19 -382.89 665.92 -267.39 682.82 -167.97 696.05 -103.16 705.31 -86.39 713.83 -121.29 718.24 -203.43 718.64 -318.9 718.26 -447.94 714.17 -567.28 706.63 -654.62 698.63 -693.68 687.57 -676.29 673.66 -606 659.61 -495.13 642.97 -364.77 623.78 -241.51 604.59 -149.43 583.08 -105.58 559.22 -117.93 535.23 -182.86 508.63 -286.87 479.25 -411.05 449.41 -530.64 416.39 -623.56 379.96 -674.01 342.75 -672.14 301.83 -618.97 257.12 -523.81 211.67 -403.29 162.57 -277.85 110.14 -167.25 57.87 -89.4 3.29 -55.25 -52.61 -68.94 -106.18 -126.06 -158.92 -215.39 -209.13 -323.01 -253.55 -429.64 -292.42 -518.35 -323.66 -576.82 -345.46 -594.93 -356.93 -570.54 -356.59 -506.97 -345.28 -412.98 -321.84 -301.4 -286.67 -185.22 -243.98 -79.66 -193.57 3.43 -138.54 56.09 -85.66 73.43 -36.3 56.18 4.62 7.63 30.77 -63.44 40.21 -146.78 29.34 -233.76 -3.46 -311.83 -58.08 -372.2 -133.04 -409.82 -222.61 -419.27 -322.6 -400.21 -425.65 -354.36 -521.41 -286.03 -603.39 -201.64 -663.31 -106.52 -694.67 -9.41 -694.58 82.73 -662.28 165.7 -602.99 233.18 -522.33 282.44 -430.34 312.46 -341.75 322.78 -267.04 315.33 -218.43 291.35 -205.92 255.28 -232.92 211.25 -299.16 160.65 -397.08 109.65 -515.75 61.76 -639.63 17.23 -750.07 -18.96 -832.22 -45.39 -873 -62.89 -866.25 -69.13 -812.88 -64.64 -721.44 -50.49 -609.73 -27 -496.2 4.23 -402.45 42.79 -348.47 86.51 -345.02 133.68 -395.78 184.95 -493.23 237.25 -621.3 289.32 -757.06 342.83 -874.18 394.53 -950.84 443.74 -971.22 492.83 -931.61 538.76 -839.45 581.33 -713.7 623.21 -582.8 661.7 -473.99 696.91 -412.3 731.45 -413.33 762.99 -477.74 791.72 -592.98 820.07 -733.74 845.94 -869.15 869.48 -968.08 892.91 -1007.38 914.21 -977.27 933.4 -883.75 952.59 -749.47 969.45 -606.61 983.93 -488.51 998.3 -421.83 1010.08 -421.08 1019.12 -484.79 1027.77 -598.41 1033.34 -734.4 1035.61 -861.8 1037.21 -953.65 1035.23 -988.75 1029.55 -960.28 1023.17 -874.53 1013.11 -749.58 999.55 -611.34 985.87 -486.48 969.36 -399.67 950.67 -366.01 933.43 -390.35 915.57 -465.38 898.37 -574.14 885.26 -696.12 875.21 -805.64 869.91 -882.06 871.93 -912.39 881.29 -890.03 899.55 -819.53 927.47 -712.06 965.68 -585.87 1014.69 -460.99 1072.63 -354.91 1139.89 -283.59 1214.98 -255.13 1293.45 -271.54 1374.53 -327.23 1454.71 -410.89 1528.32 -510.35 1593.46 -607.92 1645.98 -689.09 1681.97 -744.03 1699.67 -763.51 1697.11 -745.65 1675.31 -692.5 1634.74 -610.59 1578.1 -509.77 1512.27 -399.18 1440.93 -291.66 1370.95 -197.17 1289.83 -97.77 1267.28 -74.16 1343.94 -138.2 1426.97 -201.15 1527.05 -269.12 1635.38 -335.19 1740.07 -396.05 1831.82 -444.06 1900.36 -475.98 1937.58 -491.3 1939.54 -487.72 1905.45 -466.47 1840.93 -428.85 1753.22 -377.6 1654.16 -316.21 1559.7 -245.88 1482.09 -171.74 1434.14 -97.04 1425.36 -21.74 1458.32 49.27 1530.86 114.36 1633.65 174.66 1753.56 227.07 1873.65 271.57 1975.45 309.58 2044.23 340.09 2068.75 364.08 2045.44 382.39 1977.58 395.77 1876.12 405.49 1759.82 411.32 1647.59 415.22 1559.84 418.3 1514.07 419.2 1518.73 420.62 1574.8 423.33 1673.35 425.05 1797.66 428.88 1925.63 435.3 2067.34 445.91 2028.03 482.84 1859.22 509.86Q1859.22 509.86 1859.22 509.86" opacity="0.54"></path><path d="M1789.72 645.69C1667.22 663.68 1559.72 679.62 1485.08 693.45 1455.4 707.14 1474.77 718.48 1538.8 727.23 1637.11 735.53 1751.99 740.83 1864.31 742.85 1985.8 742.77 1959.61 722.08 1821.29 701.15 1704.41 685.41 1589.91 666.37 1493.54 644.67 1427.5 624.07 1400.1 602.41 1413.14 581 1463.95 563.57 1543.3 549.01 1638.93 539.16 1738.8 536.92 1827.61 542.29 1893.75 557.05 1929.87 582.16 1930.37 618.3 1895.73 666.05 1829.76 723.54 1740.23 791.09 1637.28 867.07 1530.5 946.71 1431.7 1029.02 1349.95 1110.12 1291.44 1183.9 1261.02 1248.18 1259.29 1298.49 1285.12 1330.82 1333.47 1343.34 1397.7 1334.29 1472.4 1305.25 1547.93 1257.15 1616.89 1193.54 1674.87 1122.33 1714.97 1047.95 1734.34 978.19 1732.32 922.84 1708.46 886.9 1665.13 876.51 1604.67 895.43 1531.82 943.7 1451.42 1019.13 1366.33 1114.56 1282.71 1222.51 1204.52 1332.24 1133.35 1430.69 1073.38 1508.21 1025.98 1555.15 991.23 1565.74 969.91 1538.58 960.96 1476.68 963.89 1390.06 976.46 1289.41 996.45 1189.58 1023.77 1107.76 1054.59 1055.76 1086.76 1043.78 1121.12 1076.14 1153.6 1149.85 1182.86 1255.96 1210.57 1378.57 1233.32 1500.34 1250.74 1602.13 1264.81 1667.08 1273.24 1684.9 1276.33 1651.91 1275.87 1574.69 1270.67 1465.77 1261.41 1344.61 1249.27 1235.13 1234.03 1156.8 1216.43 1125.77 1196.9 1149.79 1175.95 1225.45 1154.21 1340.06 1131.41 1472.08 1108.54 1597.05 1086.09 1690.46 1063.19 1733.57 1041.17 1717.42 1020.33 1644.35 999.38 1529.83 979.84 1396.07 961.85 1270.79 943.86 1181.41 927.63 1146.18 913.04 1171.29 898.33 1251.44 885.05 1368.8 872.91 1498.89 854.35 1657.18 817.27 1658.18 796.23 1502.31 779.9 1371.31 761.51 1249.51 740.34 1158.05 716.29 1111.79 688.5 1117.5 656.32 1171.86 620.58 1264.85 579.86 1377.83 533.85 1490.38 484.5 1584.55 430.17 1642.94 371.29 1656.44 310.85 1623.29 247.58 1548.39 182.83 1443.6 120.28 1323.24 59.48 1205.31 2.61 1105.59 -46.9 1035.79 -88.59 1004.36 -120.17 1012.75 -139.88 1058.36 -146.77 1132.08 -139.75 1222.03 -120.08 1317.28 -87.36 1402.91 -42.95 1468.02 8.47 1506.02 65.83 1511.03 125.17 1483.16 179.83 1425.22 227.45 1343.64 263.23 1247.09 281.87 1143.05 281.59 1042.36 260.03 953.18 217.08 880.69 153.95 830.74 73.54 804.97 -17.85 803.53 -115.22 824.06 -211.17 862.29 -296.64 915.32 -365.63 975.78 -411.48 1037.89 -429.76 1099.08 -418.72 1152.18 -378.95 1193.77 -315.93 1223.26 -235.21 1237.17 -145.86 1235.56 -60.32 1219.3 12.46 1189.17 62.38 1147.49 80.98 1095.25 65.12 1035.97 14.36 972.44 -66.41 904.68 -169.15 837.05 -282.21 771.49 -391.02 706.91 -482.83 647.04 -545.33 592.59 -570.06 541.87 -553.59 497.28 -497.71 458.55 -411.49 424.09 -306.36 394.88 -198.05 370.17 -72.19 340.02 -66.83 296.65 -196.66 279.49 -314.24 269.51 -433.55 259.17 -535.42 247.95 -603.01 237.26 -625.08 225.13 -597.2 211.22 -524.36 197.44 -417.76 181.62 -295.27 163.63 -179.03 145.64 -89.06 125.69 -40.07 103.93 -39.91 82.31 -87.53 59.14 -173.89 34.78 -285.18 10.96 -401.6 -13.49 -504.02 -38.01 -577.12 -61.26 -608.36 -83.7 -593.42 -104.53 -534.99 -123.04 -441.99 -138.8 -328.71 -150.9 -210.98 -159.49 -106.07 -163.28 -28.04 -161.46 13.44 -155.39 13.9 -143.09 -24.69 -124.31 -96.48 -101.8 -189.28 -73.49 -289.3 -40.1 -384.16 -5.73 -459.42 31.11 -505.48 68.48 -517.36 101.63 -492.79 130.94 -435.25 153.65 -350.89 165.79 -249.73 166.81 -142.91 154.42 -40.24 127.39 47.18 85.27 111.82 28.06 149.12 -41.24 156.82 -121.6 136.64 -209.54 91.39 -298.41 28.22 -385.14 -45.12 -463.92 -122.76 -527.9 -194.93 -573.67 -254.89 -596.91 -298.97 -595.85 -321.81 -570.05 -322.13 -521.15 -300.33 -455.56 -257.87 -377.89 -198.36 -296.28 -124.76 -222.16 -42.86 -162.43 42.2 -125.71 127.61 -119.09 207.37 -144.72 278.07 -202.72 338.49 -287.84 385.47 -392.84 418.55 -506.83 437.9 -615.51 444.03 -707.33 438.68 -770.36 422.37 -796.18 398.3 -781.51 368.96 -727.77 334.24 -644.11 298.43 -541.54 263.54 -435.82 228.53 -345.66 197.37 -284.67 171.08 -264.69 147.94 -291.36 130.86 -362.19 119.88 -468.04 113.19 -592.28 112.41 -716.2 116.95 -819.35 125.43 -883.88 138.3 -898.98 154.7 -861.31 174.05 -778.44 195.81 -664.42 219.19 -540.36 244.4 -431.39 270.27 -357.56 296.14 -334.56 322.97 -368.55 349.12 -453.9 374.15 -575.27 399.56 -708.91 423.43 -828.97 445.49 -910.95 467.63 -937.89 487.77 -903.61 505.76 -814.25 523.75 -688.98 539.39 -554.31 552.78 -437.96 566.27 -363.07 577.69 -344.2 587.32 -383.73 597.35 -473.55 605.99 -594.09 613.66 -720.84 626.49 -864.97 655.87 -835.86 675.78 -674.78 692.68 -545.05 712.8 -426.75 736.96 -339.35 765.07 -296.2 798.15 -303.06 836.77 -356.3 879.69 -446.39 928.33 -555.71 982.66 -665.13 1040.13 -758.07 1102.08 -817.86 1167.47 -835.59 1232.74 -808.99 1298.53 -741.65 1362.79 -643.79 1421.67 -527.91 1474.86 -410.52 1519.83 -306.48 1564.87 -204.53 1569.08 -231 1525.55 -338.49 1481.61 -428.21 1428.12 -515.52 1368.45 -589.71 1309.12 -643.9 1252.45 -670.33 1203.53 -666.83 1168.71 -634.01 1150.39 -575.06 1152.17 -496.14 1176.07 -402.8 1221.94 -304.28 1288.44 -208.38 1370.85 -120.08 1464.86 -46.75 1563.75 8.03 1658.34 42.84 1742.15 56.58 1807.42 51.03 1847.61 27.48 1859.3 -9.52 1840.73 -55.58 1794.82 -108.93 1725.48 -163.04 1640.22 -214.02 1550.82 -261.35 1466.4 -299.79 1398.08 -327.75 1356.59 -345.96 1347.38 -352.13 1373.9 -346.87 1434.61 -331.24 1523.79 -305.83 1631.83 -272.41 1745.04 -231.39 1850.29 -185.26 1933.78 -135.9 1984.07 -82.56 1994.55 -28.61 1963.2 24.63 1895.33 78.98 1799.8 131 1690.63 180.05 1585.92 228.61 1500.7 273.6 1449.2 314.92 1441.21 355.24 1478.57 391.98 1556.94 425.31 1664.63 457.81 1785.48 487.29 1900.33 514.05 1990.26 540.34 2040.57 564.31 2042.21 586.15 1995.02 607.86 1905.96 627.69 1789.72 645.69Q1789.72 645.69 1789.72 645.69" opacity="0.57"></path><path d="M1720.22 187.07C1502.89 220.66 1389.21 245.08 1438.08 261.9 1619.75 280.45 1827.83 295.02 1949.13 310.11 1922.74 333.08 1761.03 364.67 1546.29 411.65 1376.77 474.94 1327.36 560.34 1408.03 669.43 1576.65 789.32 1747.98 920.37 1846.36 1048.15 1833.57 1149.06 1711.94 1212.73 1528.92 1221.92 1342 1176.19 1211.98 1080.01 1168.45 955.26 1214.15 846.61 1321.72 783.94 1449.02 801.66 1563.49 908.19 1626.37 1084.1 1625.39 1281.44 1562.68 1430.73 1451.77 1482.3 1316.36 1411.56 1170.94 1253.92 1041.06 1076.84 938.46 970.89 864.24 1001.4 822.89 1165.2 807.54 1393.12 815.15 1569.7 834.82 1604.84 857.59 1475.54 887.26 1261.41 910.28 1088.24 923.17 1070.72 935.69 1229.46 936.3 1471.91 925 1644.85 913.01 1634.18 890.13 1444.03 856.55 1201.29 822.96 1078.21 779.46 1156.77 726.03 1376.27 671.91 1590.27 606.85 1653.48 530.98 1529.11 454.75 1294.99 369.51 1093.98 278.91 1038.23 195.21 1151.23 115.89 1355.7 50.07 1529.34 7.22 1579.25 -8.18 1474.99 10.88 1271.97 58.34 1061.09 134.68 936.29 228.33 937.85 311.98 1053.57 372.9 1219.08 387.55 1359.08 340.48 1422.49 231.48 1380.64 72.99 1252.54 -98.31 1073.41 -247.81 897.82 -333.17 766.55 -329.29 699.13 -236.67 701.81 -84.72 756.83 63.32 848.85 152.41 944.64 135.23 1022.29 6.9 1076.83 -191.8 1093.04 -385.03 1074.43 -490.32 1026.59 -462.77 957.07 -312.21 877.05 -116.42 786 29.24 697.64 42.67 617.42 -91.58 536.63 -309.55 467.37 -497.86 410.32 -553.37 353.92 -443.1 308.9 -225.77 275.31 -29.45 241.73 34.07 220.37 -65.07 211.35 -366.02 205.37 -364.96 255.16 -58.97 298.35 74.51 317.44 74.83 327.32 -45.07 316.96 -226.89 277.38 -380.4 204.43 -439.43 94.74 -381.31 -38.03 -227.03 -187.36 -34.82 -331.15 135.94 -437.95 231.57 -490.63 235.2 -471.29 155.18 -388.09 29.64 -258.63 -96.31 -123.51 -191.7 -39.41 -224.32 -39.45 -190.3 -142.5 -97.29 -322.15 33.96 -525.06 177.72 -675.77 319.72 -712.32 436.32 -620.1 519.71 -439.17 570.36 -266.11 588.78 -189.19 584.32 -263.68 559.35 -461.93 527.47 -688.27 497.2 -820.25 463.28 -783.49 439.35 -598.55 427.56 -377.38 417.76 -265.93 420.28 -338.98 434.17 -559.6 449.11 -785.76 473.65 -867.78 507.23 -744.75 540.82 -502.02 582.66 -308.42 633.13 -291.06 684.66 -457.33 746.61 -689.89 819.75 -835.71 894.87 -805.26 981.02 -616.08 1075.88 -382.99 1167.08 -234.72 1258.62 -247.95 1341.79 -399.89 1404.45 -603.2 1442.79 -739.65 1447.29 -740.23 1419.05 -604.34 1355.99 -394.73 1265.75 -202.1 1173.75 -96.37 1092.48 -110.52 1047.52 -220.14 1061.56 -377.81 1140.3 -511.82 1279.7 -574.34 1449.69 -548.07 1617.14 -439.29 1736.83 -282.6 1772.85 -109.79 1714.61 36.37 1578.82 133.89 1421.59 176.47 1299.84 166.36 1271.68 120.6 1360.67 47.98 1541.55 -26.31 1747.99 -87.99 1892.52 -138.89 1914.07 -164.65 1799.53 -167.01 1608.32 -153.06 1432.69 -122.43 1368.35 -82.07 1457.38 -33.82 1659.29 16.06 1870.88 62.93 1976.67 111.52 1916.54 153.48 1720.22 187.07Q1720.22 187.07 1720.22 187.07" opacity="0.90"></path><path d="M1650.72 243.57C1446.73 274.76 1326.23 315.89 1343.92 367.06 1488.86 419.01 1685.78 482.2 1840.36 556.63 1885.09 631.66 1798.2 716.23 1620.35 806.61 1423.09 889.99 1285.43 968.94 1253.51 1033.83 1332.4 1074.66 1481.71 1086.76 1638.95 1062.91 1750.24 1009.84 1771.69 927.71 1699.44 829.55 1554.39 744.3 1380.18 685.98 1222.91 678.76 1114.4 736.29 1076.51 856.57 1105.17 1022.74 1188.06 1193.24 1294.62 1330.77 1396.3 1393.11 1478.01 1361.21 1517.63 1243.75 1512.08 1080.96 1464.82 943.27 1383.69 885.59 1282.68 945.53 1167.04 1108.96 1053.56 1317.88 950.63 1485.66 855.57 1536.67 777.92 1447.55 716.58 1259.02 666.21 1072.42 627.91 984.35 597.34 1051.72 572.54 1245.62 549.97 1466.03 526.36 1590.09 504.17 1546.25 478.09 1356.73 446.9 1131.79 415.72 1010.91 380.16 1064.11 341.6 1253.37 304.47 1468.84 267.19 1582.43 233.17 1533.48 204.93 1349.89 185.45 1129.95 179.23 984.42 184 979.1 206.26 1106.86 247.27 1294.62 296.16 1453.72 356.93 1504.33 421.36 1427.22 471.16 1253.33 502.59 1053.2 501.77 899.3 459.26 837.32 373.22 879.16 246.89 994.81 100.59 1143.06 -48.78 1264.93 -172.56 1323.43 -242.09 1305.56 -243.12 1214.73 -171.45 1077.4 -51 917.6 88.47 771.2 201.06 659.43 240.83 589.64 189.16 566.89 50.06 581.27 -134.99 627.03 -309.72 685.74 -411.47 743.87 -402.41 802.66 -285.06 845.83 -105.4 871 54.84 885.92 126.84 883.94 70.07 869.07 -96.53 847.39 -302.63 818.65 -453.73 786.77 -477.6 753.05 -360.26 719.81 -156.27 688.62 29.47 657.44 105.07 629.04 38.53 602.01 -136.32 573.15 -330.21 542.04 -451.66 504.91 -448.28 460.96 -320.5 405.17 -126 333.69 57.69 251.94 158.22 153.38 145.39 40.55 30.59 -71.62 -132.09 -183.04 -277.07 -280.01 -355.41 -345.61 -335.8 -372.59 -228.01 -350.88 -62.45 -287.19 111.35 -187.21 249.55 -72.03 325.7 20.67 327.93 68.69 269.1 45.71 166.6 -53.64 55.22 -214.43 -37.62 -399.5 -99.07 -551.99 -112.37 -628.57 -79.68 -599.09 -6.76 -477.68 93.76 -307.77 206.67 -161.69 327.22 -112.37 438.63 -188.37 534.48 -370.31 618.03 -580.94 682.39 -729.02 730.46 -741.33 766.5 -613.43 792.31 -408.39 812.81 -236.81 827.76 -199.86 843.1 -322.59 862.03 -544.22 879.7 -739.67 903.55 -796.08 934.74 -675.25 965.93 -450.32 1003.71 -257.61 1046.78 -207.55 1088.6 -325.41 1133.11 -536.62 1176.98 -718.52 1215.29 -773.88 1247.27 -670.95 1267.8 -466.77 1276.31 -260.63 1267.35 -151.18 1237.84 -179.3 1196.04 -324.2 1137.33 -507.71 1067.99 -643.33 1006.28 -675.48 955.47 -587.6 930.62 -417.45 945.99 -222.18 1005.71 -69.98 1111.78 -1.24 1249.25 -26.74 1403.46 -125.32 1546.83 -254.94 1646.54 -380.24 1683.24 -457.72 1643.92 -470.64 1542.54 -418.81 1403.45 -314.08 1270.37 -180.78 1195.05 -34.55 1205.66 97.29 1311.82 201.58 1484.62 276.64 1672.72 317.26 1810.39 330.49 1846.07 319.65 1765.85 296.1 1599.75 269.29 1422.84 235.5 1309.96 208.71 1318.62 192.48 1452.1 176.87 1655.17 173.53 1836.2 182.32 1908.91 191.89 1836.47 212.39 1650.72 243.57Q1650.72 243.57 1650.72 243.57" opacity="0.41"></path><path d="M1581.15 678.51C1391.03 707.29 1266.74 739.29 1257.03 773.13 1363.7 805.42 1537.59 836.51 1705.95 862.9 1805.73 883.33 1796.09 893.63 1683.82 889.6 1508.49 875.14 1331.84 843.22 1210.02 793.76 1176.37 739.27 1234.41 676.42 1356.21 614.93 1503.96 573.05 1625.91 555.19 1687.52 574.32 1674.95 636.04 1590.09 740.23 1456.5 879.07 1299.97 1027.53 1155.65 1166.45 1047.62 1266.2 987.53 1302.51 980.33 1266.54 1016.39 1163.54 1087.16 1027.85 1171.08 895.08 1251.23 812.69 1322.49 818.14 1368.63 917.53 1386.9 1089.23 1380.55 1276.64 1349.14 1418.99 1299.54 1461.18 1234.13 1387.64 1161.3 1225.79 1087.39 1043.58 1008.91 927.42 935.74 931.03 870.4 1062.51 805.22 1265.88 749.07 1450.21 702.25 1525.69 655.85 1454.67 618.18 1269.24 589.4 1062.3 560.61 944.74 541.38 975.01 531.71 1132 522.45 1337.34 523.35 1485.17 534.25 1506.16 545.29 1392.65 565.13 1197.18 591.38 1007 613.06 898.66 634.76 912.35 650.28 1031.21 649.99 1204.33 632.75 1354.59 591.84 1424.36 526.29 1390.48 434.27 1263.8 318.64 1088.97 194.12 914.96 67.35 793.23 -44.6 748.6 -121.85 784.32 -154.18 879.37 -131.82 999.18 -61.52 1116.83 46.85 1196.31 169.39 1222.78 268.99 1194.6 321.8 1117.12 304.39 1007.78 212.81 877.81 62.96 749.78 -110.46 637.11 -257.93 541.67 -339.44 473.39 -326.88 430.03 -226.17 408.1 -68.26 403.03 90.81 407.36 186.84 422.08 182.73 436.81 71.84 446.76 -107.62 459.17 -289.99 462.87 -402.35 456.25 -398.33 449.78 -276.96 432.4 -86.84 403.62 87.66 374.83 172.42 335.32 135.99 285.72 -4.92 236.27 -187.23 177.33 -336 110.63 -396.13 46.38 -342.78 -21.66 -198.92 -88.62 -14.49 -145.18 146.09 -191.25 233.64 -219.22 225.95 -225.75 133.68 -206.14 -5.34 -157.97 -149.37 -92.57 -248.66 -10.44 -276.44 75.16 -227.19 140.14 -113.19 174.79 35.88 161.79 192.06 94.15 321.18 -24.85 404.02 -180.21 433.3 -337.76 411.27 -468.76 352.31 -538.49 266.85 -527.87 178.66 -438.21 103.5 -294.18 45.33 -149.32 17.26 -50.52 19 -42.3 46.79 -137.72 97.41 -311.43 162.78 -505.65 241.54 -645.63 323.55 -678.09 403.03 -586.02 484.64 -412.1 558.47 -230.38 622.99 -127.94 686.18 -160 740.02 -316.28 784.92 -527.31 829.11 -690.02 865.55 -723.26 894.34 -605.74 950.35 -297.99 938.67 -686.88 899.04 -549.44 871.79 -351 840.91 -170.38 812.04 -75.73 796.56 -96.8 794.58 -215.67 814.06 -377.4 859.6 -523.44 933.55 -594.95 1036.1 -570.42 1155.62 -458.07 1286.66 -293.25 1413.31 -123.56 1513.46 13.42 1575.02 85.33 1583.47 86.76 1538.37 24.74 1445.17 -74.64 1322.99 -181.91 1207.9 -279.56 1125.95 -340.9 1106.68 -358.26 1164.44 -333.02 1291.62 -269.27 1461.33 -180.12 1626.04 -71.36 1741.76 40.13 1770.56 144.5 1704.11 243.85 1562.27 326.9 1394.08 393.59 1266.46 449.85 1226.86 492.88 1298.1 526.75 1457.98 554.64 1648.76 578.81 1795.37 602.58 1837.5 624.82 1755.66 649.72 1581.15 678.51Q1581.15 678.51 1581.15 678.51" opacity="0.74"></path><path d="M1513.48 439.26C1274.51 473.65 1316.43 491.47 1551.03 476.48 1685.15 464.82 1742.74 446.8 1708.18 425.88 1592.97 412.28 1431.97 403.24 1271.3 405.29 1150.43 425.2 1099.01 465.37 1122.3 530.5 1210.44 616.73 1333.23 725.01 1456.61 848.51 1555.48 969.4 1602.98 1079.72 1591.87 1161.97 1525.58 1200.77 1417.37 1189.34 1288.01 1125.46 1152.83 1025.76 1034.27 905.95 944.43 795.3 887.42 729.31 866.42 726.54 875.44 798.84 911.08 933.54 961.12 1102.8 1015.58 1262.64 1074.5 1365.13 1124.62 1380.8 1162.07 1301.11 1191.78 1155.64 1206.42 991.23 1207.66 869.79 1200.85 843.29 1184.22 925.56 1161.04 1092.78 1133.73 1282.01 1103.78 1421.11 1073.64 1451.2 1042.46 1359.45 1013.17 1181.27 986.78 992.47 960.4 879.36 937.53 889.51 917.31 1013.64 896.04 1199.17 875.34 1364.05 852.9 1441.68 826.3 1404.03 794.05 1265.73 752.98 1081.23 703.86 914.48 642.36 823.21 566.91 830.96 483.74 929.97 389.02 1078.52 286.77 1223.61 188.97 1323.09 96.87 1342.83 20.56 1280.71 -29.12 1152.93 -47.4 994.12 -28.15 842.16 23.93 724.09 106.25 663.1 206.85 661.53 301.62 713.89 376.89 799.99 412.03 897.03 391.97 992.33 315.09 1062.58 188.75 1099.2 37.89 1102.41 -110.46 1070.68 -222.14 1012.25 -268.97 931.41 -239.06 839.95 -137.53 746.98 3.79 650.98 147.61 563.64 247.93 487.62 267.6 416.67 197.4 357.68 53.1 309.04 -120.84 264.57 -270.26 227.32 -343.48 195.13 -314.79 164.21 -191.48 135.96 -15.5 109.57 146.61 83.18 236.57 59.28 225.8 38.8 119.56 19.59 -40.53 6.19 -197.73 0.9 -302.91 -0.22 -319.4 9.88 -244.91 32.95 -102.24 61.09 65.55 101.56 211.74 151.83 301.26 199.07 314.13 245.93 255.52 283.45 143.04 298.54 12.87 288.22 -100.7 244.33 -175.25 167.04 -190.5 57.51 -146.47 -75.54 -51.68 -210.33 74.64 -332.67 209.91 -419.61 338.87 -452.64 441.14 -424.58 508.38 -337.67 538.79 -216.87 534.15 -87.45 503.33 12.85 450.26 47.49 389.49 2.19 330.67 -120.82 273.04 -289.45 228.94 -459.51 200.57 -577.86 182.92 -604.96 181.02 -530.86 191.94 -379.01 211.59 -209.4 239.32 -83.7 271.45 -56.23 307.58 -144.05 344.07 -316.7 378.49 -507.45 413.84 -636.79 445.21 -649.62 471.6 -536.51 497.99 -347.71 518.77 -166.85 534.82 -69.89 551.8 -94.76 565.96 -226.09 579.6 -405.13 597.23 -562.17 618.39 -631.84 646.62 -590.45 683.57 -454.12 732.34 -272.53 795.73 -107.71 869.83 -8.68 958.52 -2.85 1059.49 -81.8 1161.64 -218.1 1264.47 -361.78 1358.2 -469.01 1429.7 -513.83 1473.62 -481.68 1480.97 -384.53 1451.48 -242.72 1385.45 -89.97 1291.07 44.3 1190.39 142.77 1096.99 190.44 1033.37 189.39 1020.49 144.9 1065.13 73.86 1167.16 -6.34 1308.21 -89.18 1463.95 -155.39 1599.97 -198.3 1682.12 -220.09 1690.76 -215.67 1620.57 -189.85 1493.73 -146.17 1343.11 -90.26 1215.33 -28.78 1155.73 40 1184.83 106.91 1300.18 168.34 1467.57 231.07 1635.44 285.75 1746.89 331.26 1762.89 376.72 1675.6 412.87 1513.48 439.26Q1513.48 439.26 1513.48 439.26" opacity="0.87"></path><path d="M1443.79 104.63C1282.64 128.62 1158.76 153.18 1106.72 179.03 1139.85 205.96 1244.73 236.26 1388.23 271.9 1532.72 311.31 1635.36 359.16 1670.58 417.42 1631.62 481.36 1528.14 556.73 1386.81 642.7 1237.37 730.06 1113.42 821.89 1037.47 911.84 1020.2 988.26 1059.7 1048.77 1141.22 1084.27 1249.33 1089.67 1357.09 1061.8 1444.27 1000.56 1500.49 918.61 1513.61 822.15 1484.76 727.93 1418.58 659.88 1325.42 629.72 1218.39 651.49 1104.32 727.48 998.03 849.94 907.08 999.72 832.26 1144.29 779.36 1256.09 746.69 1306.8 732.22 1283.63 732.39 1190.45 741.89 1050.34 761.38 907.41 782.88 800.76 802.43 767.66 824.84 824.32 841.41 957.73 850.59 1130.42 859.78 1286.81 860.79 1376.9 853.37 1367.39 845.75 1261.69 830 1093.67 806.01 923.06 782.02 815.39 750.36 808.34 711.26 900.31 671.94 1058.75 624.89 1224.21 570.46 1340.1 516.04 1371.11 455.02 1306.33 389.09 1169.19 326.01 999.99 261.91 849.52 200.84 757.24 149.76 743.44 109.06 805.83 84.13 920.11 77.42 1057.05 92.07 1175.5 129.92 1247.15 183.9 1259.02 254.48 1207.28 334.22 1106.12 406.93 972.55 467.15 833.59 501.88 711.25 499.29 617.75 456.22 565.51 371.68 553.82 256.18 579.7 121.7 631.87 -11.38 697.44 -117.88 772.25 -180.63 839.94 -184.75 893.37 -130.2 934.66 -25.8 955.59 106.05 957.8 229.79 945.46 317.65 919.09 343.07 883.51 294.31 839.61 180.21 792.64 26.47 746.36 -126.28 697.18 -238.22 652.18 -276.09 613.31 -228.8 573.91 -107.35 541.8 53.79 517.81 203.48 493.82 296.9 478.51 309.09 471.18 237.9 463.33 107.93 462.28 -41.33 466.22 -171.28 467.25 -243.65 469.78 -241.49 470.16 -166.94 462.22 -38.92 445.99 110.77 416.76 251.27 372.99 351.74 311.52 395.8 230.85 378.86 138.04 310.6 32.11 210.79 -79.67 97.13 -182.22 -2.94 -270.1 -71.82 -330.32 -101.95 -352.97 -86.52 -333.68 -31.04 -271.65 57.55 -180.75 165.44 -71.74 278.83 33.5 391.15 106.35 488.55 131.39 565.56 94.57 622.2 -2.04 655.7 -143.73 669.65 -302.07 665.74 -437.76 650.05 -519.72 628.3 -523.52 598.73 -448.84 570.42 -314 546.79 -158.34 522.11 -34.72 505.05 18.61 496.46 -21.62 488.74 -146.74 489.41 -319.25 498.23 -482.45 507.48 -579.19 524.13 -574.61 548.12 -466.98 572.11 -296.38 602.87 -125.92 640.35 -15.43 678.26 -1.15 723.63 -84.14 776.6 -231.27 830.43 -394.71 891.92 -516.69 960.13 -559.83 1027.29 -513.21 1098.2 -390.96 1169.35 -230.44 1232.68 -72.74 1288.9 40 1332.2 84.58 1357.65 55.27 1362.39 -33.27 1342.72 -152.85 1302.68 -277.66 1240.99 -373.41 1163 -421.08 1083.94 -414.53 1008.99 -354.43 951.83 -254.94 927.79 -129.27 942.31 0.12 1000.77 116.39 1097.98 211.96 1224.76 275.54 1363.4 307.11 1488.19 308.59 1579.7 286.32 1618.04 249.29 1595.38 198.73 1514.46 147.44 1391.54 101.65 1259.42 57.26 1147.03 24.5 1086.01 4.08 1097.39 -10.65 1181.21 -14.06 1320.42 -8.22 1478.95 1.37 1615.98 17.12 1691.92 36.91 1684.47 57.79 1593.48 80.64 1443.79 104.63Q1443.79 104.63 1443.79 104.63" opacity="0.77"></path><path d="M1372.72 484.14C1226.86 505.73 1108.09 534.99 1043.53 571.28 1046.89 607.24 1114.36 649.49 1227.14 696.62 1361.18 741.8 1483.05 789.4 1566.8 836.55 1597.85 877.6 1568.79 913.29 1487.73 939.39 1369.32 953.34 1236.46 952.31 1111.89 933.19 1012.31 899.82 952.73 848.99 937.29 783.43 965.07 715.09 1026.4 645.13 1107.75 583.65 1200.06 544.85 1285.28 533.31 1352.56 557.28 1398.45 618.36 1415 714.08 1403.19 835.98 1365.71 965.1 1307.04 1086.49 1234.34 1179.21 1149.85 1225.22 1062.93 1215.96 979.06 1150.21 896.7 1043.8 823.46 915.59 760.55 795.05 704.2 715.43 658.1 695.8 620.74 746.87 588.92 859.8 563.07 1010.41 541.07 1161.93 521.84 1273.72 503.85 1316.1 485.55 1274.64 467.96 1161.57 448.66 1006.21 427.07 853.79 405.48 752.67 382.11 731.66 357.64 793.56 333.88 920.36 310.44 1072.12 288.94 1205.62 270.23 1287.74 256.08 1295.01 248.73 1228.31 246.92 1104.57 254.67 955.03 273.6 814.47 299.09 710.45 335.85 663.92 382.76 678.5 431.18 748.2 483.68 852.29 534.9 966.21 587.58 1108.04 565.25 1129.59 467.96 1011.03 372.39 899.59 260.22 783.27 142.42 674.87 35.58 579.49 -49.79 507.62 -100.05 460.78 -107.09 437.78 -68.44 436.56 11.88 451.25 117.19 480.92 232.46 516.64 335.04 552.86 400.28 592.79 415.28 626.88 372.04 652.97 276.11 677.42 143.93 692.62 1.56 698.86 -119.54 703.14 -193.37 699.71 -201 689.51 -140.71 678.63 -24.13 662.22 121.72 640.63 258.63 619.04 353.14 592.78 384.5 561.61 346.52 529.76 251.46 491.75 124.01 446.76 -9.11 399.8 -115.09 344.61 -172.12 280.98 -170.88 215.73 -111.15 143.3 -6.84 65.95 123.82 -7.68 255.88 -79.89 367.7 -145.02 444.9 -195.17 477.04 -228.37 464.75 -238.66 412.18 -225.11 333.16 -185.38 242.91 -120.91 150.8 -43.4 74.32 43.27 22.26 126.41 -3.35 187.59 2.12 218.85 35.23 208.82 92.59 153.67 167.13 56.77 251.01 -71.09 342.39 -207.48 431.43 -332.51 513.48 -421.48 590.51 -455.34 656.02 -426.41 709.91 -338.23 755.61 -213.51 791.15 -78.03 818.78 33.53 840.51 88.07 857.7 70.52 872.7 -19.91 885.01 -161.72 897.82 -319.84 912.7 -450.92 926.92 -517.13 944.52 -498.34 966.11 -397.25 987.7 -244.85 1012.77 -87.28 1040.6 30.08 1067.78 75.84 1096.41 39.84 1124.82 -63.59 1150.54 -206.78 1173.35 -347.08 1190.79 -447.85 1202.34 -486.75 1205.14 -453.08 1196.85 -357.64 1180.38 -221.28 1151.36 -75.48 1109.79 50.18 1063.19 135.21 1008.56 165.4 950.46 141.88 899.85 71.64 857.45 -25.69 830.99 -129.32 828.77 -225.73 852.94 -294.51 906.85 -327.29 987.21 -322.97 1090.64 -281.78 1208.24 -212.09 1323.99 -119.72 1427.06 -17.63 1502.11 83.98 1536.88 182.82 1525.65 268.07 1467.72 336.89 1375.15 391.46 1260.69 428.98 1145.84 452.44 1057.36 463.76 1011.69 466.42 1022.63 464.54 1091.85 456.56 1208.14 448.96 1349.6 444.5 1536.09 437.69 1555.79 455.85 1372.72 484.14Q1372.72 484.14 1372.72 484.14" opacity="0.29"></path><path d="M1303.15 659.82C1172.8 679.02 1061.05 694.37 988.29 705.54 966.82 716.13 998.48 721.44 1074.65 720.56 1182.41 717.8 1299.28 707.44 1404.46 688.81 1483.38 667.8 1521.09 638.53 1513.51 601.89 1463.06 565.72 1377.71 525.88 1270.92 486.02 1154.69 454.74 1045.39 431.3 954.86 421.2 889.77 430 856.11 459.23 853.12 511.63 879.13 584.32 926.79 676.37 987.74 782.13 1058.58 889.02 1127.55 990.44 1188.15 1074.06 1240.23 1127.62 1276.1 1144.82 1294.94 1120.54 1299.11 1059.38 1287.37 967.09 1262.7 857.42 1226.71 752.81 1182.78 668.64 1134.47 623.31 1080.63 629.74 1026.7 689.11 975.02 794.56 921.78 926.76 872.88 1062.55 829.35 1174.19 785.77 1237.3 748.01 1237.83 716.41 1173.31 684.9 1059.18 659.42 918.6 640.23 784.3 621.04 690.75 608.59 659.13 602.71 694.17 596.93 787.56 597.86 914.85 605.24 1046.32 612.57 1156.29 625.92 1219.15 644.34 1223.85 661.2 1171.16 681.04 1071.89 701.63 946.28 716.68 814.59 728.17 700.68 732.65 621.04 725.8 584.52 706.96 593.65 673.21 641.62 624.78 720.76 560.35 813.9 480.81 905.85 392.75 988.37 297.43 1046.91 201.43 1076.28 115.33 1076.46 43.72 1047.06 -4.95 993.84 -24.62 920.49 -12.33 836.01 32.77 748.02 103.32 657.61 194.02 574.08 293.13 500.78 382.81 435.35 452.51 382.67 488.89 341.78 482.41 309.8 432.2 287 342.46 270.73 226.44 260.12 100.41 252.44 -14.75 245.31 -98.32 240.58 -135.63 233.9 -117.96 223.81 -48.99 214.28 60.8 200.21 191.15 181.02 314.42 161.83 406.6 137.97 451.51 110.12 441.79 82.83 381.82 52.68 285.14 21.21 167.72 -7.84 53.58 -35.72 -37.63 -59.94 -93.65 -78.49 -103.87 -89.78 -68.72 -91.06 5.93 -83.44 108.21 -63.2 222.87 -29.29 337.43 12.49 436.19 65.42 509.41 126.25 552.24 184.67 562.15 240.58 542.66 286.48 496.82 312.26 434.48 315.32 364.79 289.99 291.11 235.48 225.14 153 172.3 47.81 132.24 -66.79 110.85 -181.29 107.5 -280.43 119.88 -348.39 147.19 -376.14 185.68 -356.75 234.45 -294.24 288.71 -195.98 344.93 -78.36 405.15 33.18 463.32 119.96 517.51 161.85 572.15 146.34 621.34 74.34 664.51 -43.02 707.19 -181.89 743.91 -314.83 774.65 -412.04 805.16 -450.91 830.07 -421.26 849.27 -327.74 868.46 -193.45 881.47 -50.92 888.35 67.02 894.99 135.36 895.11 140.5 888.62 84.83 881.65 -19.39 868.01 -146.02 848.19 -267.39 828.82 -362.02 804.74 -408.92 777.78 -401.29 754.82 -341.91 732.99 -242.1 715.74 -120.38 708.76 6.41 712.04 117.29 729.24 198.44 762.16 242.72 812.12 246.9 879.64 216 959.94 155.04 1052.26 77.57 1151.1 -4.16 1245.95 -84.76 1332.24 -150.46 1400.74 -195.69 1442.89 -220.64 1454.35 -221.3 1431.51 -200.53 1378.27 -160.85 1298.1 -106.81 1200.67 -44.02 1103.13 27.34 1016.48 99.62 955.89 169.05 934.81 238.94 957.52 302.3 1024.38 358.13 1126.42 411.59 1249.72 457.49 1374.55 496.45 1478.64 533.53 1544.26 565.05 1557.77 591.84 1516.66 618.05 1426.42 640.63 1303.15 659.82Q1303.15 659.82 1303.15 659.82" opacity="0.15"></path><path d="M1233.72 206.86C1016.39 240.45 901.41 254.42 941.11 254.83 1108.59 261.94 1303.74 269.88 1428.18 295.49 1434.07 350.14 1318.48 444.63 1138.09 584.43 949.38 741.53 815.61 903.13 759.08 1022.26 778.41 1055.09 848.56 984.66 934.17 824.84 1027.74 655.92 1094.43 550.71 1128.01 585.11 1143.06 759.36 1131.67 994.69 1104.87 1157.16 1071.36 1144.58 1034.93 957.53 1001.35 714.79 967.76 591.71 938.61 666.5 908.77 874.01 872.23 1083.14 822.53 1156.53 749.27 1062.39 657.49 854.45 535.49 642.57 390.15 517.4 252.78 513.63 134.42 611.39 71.07 748.36 83.57 883.98 177.52 960.27 331.26 967.83 476.68 916.92 562.15 824.33 531.64 719.04 382.58 600.94 168.32 498.04 -12.11 418.13 -64.78 340.42 43.39 284.76 260.72 251.17 457.04 217.58 522.55 207.65 433.7 222.01 241.54 238.58 57.89 280.38 -28.17 340.28 13.98 387.36 164.87 424.66 356.22 423.83 530.48 364.51 632.27 240.02 652.36 60.39 599.31 -120.6 508.24 -258.19 415.5 -289.42 326.59 -199.24 272.84 -17.49 254.86 165.84 258.6 235.38 285.81 142.91 323.5 -79.15 367.76 -299.64 409.7 -381.28 443.28 -258.25 476.87 -15.52 500.51 178.37 519.6 203.96 545.24 54.47 579.13 -161.74 633.6 -311.39 709.78 -321.2 818.84 -185.88 959.51 18 1104.02 212.8 1243.3 323.06 1340.38 334.26 1364.3 259.15 1302.34 145.76 1163.05 40.42 1006.67 -47.6 885.9 -86.78 868.36 -83.23 979.05 -50.64 1181.81 2.51 1386.94 58.74 1488.74 121.67 1430.04 173.28 1233.72 206.86Q1233.72 206.86 1233.72 206.86" opacity="0.80"></path><path d="M1164.22 221.15C974.08 249.93 849.14 296.17 833.55 360.23 928.19 426.79 1085.21 514 1239.87 618.65 1347.21 719.2 1367.02 821.85 1303.22 906.52 1175.27 951.31 1020.95 945.23 876.71 876.01 756.94 765.21 682.16 627.9 648.76 509.59 650.89 465.66 674.47 518.23 703.29 668.53 772.24 946.96 702.48 541.5 613.1 702.06 547.98 898.36 467.55 1043.78 378.66 1079.52 299.95 998.52 228.96 835.42 182.47 654.39 171.49 502.14 204.94 421.42 286.98 414.39 393.49 471.72 513.68 561.09 611.65 650.97 645.47 738.25 599.85 794.48 471.41 818.48 295.64 823.85 122.24 806.89 16.49 778.6 20.98 744.35 140.08 710.16 330.22 681.37 504.71 652.59 590.6 630.56 561.33 610.52 432.28 584.51 264.47 549.11 123.75 493.85 49.44 419.97 68.91 316.33 165.94 184.68 314.84 50.43 472.77 -80.25 606.06 -175.32 703.37 -206.03 751.44 -159.45 759.73 -37.18 734.13 113.86 693.8 251.15 654.8 311.07 609.45 254.24 579.35 92.47 568.62 -114.93 558.87 -272.83 568.2 -306.27 596.99 -188.75 625.78 18.17 672.66 206.29 736.7 287.29 801.72 230.65 884.19 75.06 979.44 -99.88 1068.32 -229.1 1156.06 -255.87 1226.03 -181.98 1262.11 -33.69 1255.37 137.75 1195.79 286.28 1100.23 393.23 976.43 440.64 857.51 440.23 790.45 399.93 796.8 344.68 892.21 294.02 1054.03 239.25 1238.23 204.42 1378.39 192.15 1418.77 182.38 1338.71 192.36 1164.22 221.15Q1164.22 221.15 1164.22 221.15" opacity="0.27"></path><path d="M1094.65 668.12C933.64 692.11 810.22 722.82 756.05 756.35 781.76 785.84 872.38 810.26 996.19 821.09 1128.03 817.46 1228.92 789.52 1280.44 732.67 1280.75 661.75 1230.2 571.64 1145.42 478.2 1035.7 411.61 922.27 381.95 819.07 410.04 723.1 499.46 647.38 640.8 590.88 805.45 545.03 946.44 511.76 1026.69 485.54 1013.76 462.75 911.43 440.61 746.4 416.62 575.8 392.63 468.13 367.93 459.3 345.48 543.69 326.45 692.44 316.08 847.64 320.36 960.18 335.29 1006.13 371.5 971.61 430.5 874.86 496.72 736.94 575.7 593.09 653.99 469.87 707.32 374.83 729.43 320.88 704.14 301.75 627.64 312.37 505.23 339.34 355.81 369.11 162.28 421.23 179.36 457.3 399.65 430.8 549.7 406.81 644.41 364.99 661.75 307.26 600.35 249.85 485.43 178.34 353.45 98.59 230.04 27.25 150.8 -39.22 127.6 -86.81 158.14 -104.66 234.77 -85.15 337.51 -21.57 457.13 70.2 571.46 185.6 669.01 298.54 753.81 370.31 816.16 383.34 859.77 319.81 891.55 189.7 913.43 20.86 931.87 -137.14 946.93 -230.82 965.06 -226.88 989.05 -119.25 1013.04 51.33 1041.75 221.24 1071.93 332.86 1098.74 355.08 1120.5 288.5 1130.3 165.1 1128.27 18.03 1105.43 -101.81 1057.62 -166.25 997.04 -169.37 917.16 -111.27 828.97 -13.24 757.67 111.63 709.47 236.19 703.9 344.08 752.06 437.91 852.81 505.36 993.8 550.57 1143.36 581.31 1271.94 600.53 1342.63 616.27 1334.57 627.99 1244.75 644.12 1094.72 668.11Q1094.65 668.12 1094.65 668.12" opacity="0.22"></path><path d="M1025.14 466.32C894.79 485.51 783.2 489.78 709.6 480.02 683.77 470.04 705.92 446.22 765.9 411.12 855.6 379.16 953.47 342.1 1043.18 307.74 1120.97 289.54 1171.58 288.14 1193.36 313.01 1190.86 367.12 1164.53 452.39 1122.39 564.51 1066.49 686.02 1005.92 806.23 947.57 902.95 885.8 955.47 831.68 952.35 788.27 888.28 744.7 778.53 712.58 640.53 693.39 506.24 674.2 412.72 668.84 380.11 676.22 410.45 683.44 496.18 702.63 611.82 731.15 729.96 770.73 868.47 823.48 877.49 800.21 769.47 753.27 671.83 679.91 573.04 582.13 483.16 472.44 397.99 357.36 328.87 253.59 275.63 179.55 229.93 146.47 195.71 164.9 169.34 231.09 145.55 338.79 124.87 469.14 105.68 592.41 86.49 684.73 69.69 731.51 57.28 727.17 47.46 677.68 46.76 597.41 59.21 496.08 79.19 396.76 116.7 314.4 172.29 251.5 232.6 220.02 303.84 218.46 376.32 242.04 430.97 286.69 464.64 343.27 463.75 411.27 421.04 479.87 336.63 542.91 217.65 607.54 85.45 662.56 -41.11 705.92 -134.24 748.91 -171.99 780.51 -143.27 799.7 -49.75 818.9 84.52 824.79 226.42 818 343.57 810.83 415.05 790.73 429.1 759.36 390.64 729.58 307.99 692.58 204.98 654.16 103.47 627.15 11.33 610.05 -51.18 611.61 -80.13 638.32 -79.85 692.54 -50.9 775.42 -3.12 877.75 60.81 994.28 129.48 1109.68 194.69 1204.03 263.05 1264.46 321.78 1276.22 367.96 1236.87 413.92 1148.47 447.12 1025.21 466.31Q1025.14 466.32 1025.14 466.32" opacity="0.84"></path><path d="M956.4 103.92C766.18 132.71 639.72 162.78 612.52 209.01 680.4 275.02 796.43 385.6 906.18 541.42 1006.88 698.6 1058.87 836.69 1068.16 886.25 1060.93 819.49 1035.76 643.63 1006.98 436.69 978.19 319.12 948.5 341.3 905.84 465.45 846.66 639.64 749.75 773.06 611.31 828.91 463.83 820.16 317.27 756.47 228.29 680.27 234.39 589.58 349.18 521.29 539.4 492.5 713.69 463.72 801.49 477.15 786.48 517.95 683.92 544.27 552.59 563.03 445.01 534.05 359.89 440.46 328.38 276.51 335.95 81.22 361.12 -64.02 396.26 -97.87 425.05 19.69 453.84 226.63 473.55 414.15 498.27 502.03 540.59 473.57 617.03 366.01 739.88 246.56 885.19 128.46 1047.05 62.82 1170.72 46.69 1206.83 50.35 1130.69 75.13 956.4 103.92Q956.4 103.92 956.4 103.92" opacity="0.27"></path><path d="M886.15 457.72C755.81 476.91 644.56 523.82 570.65 589.83 536.38 651.45 539.07 720.8 563.73 778.26 609.24 806.85 653.21 796.36 681.72 733.8 712.46 634.39 720.87 501.58 701.68 367.3 682.48 273.75 637.51 239.12 573.51 259.68 511.74 328.3 437.82 416.32 367.15 497.52 317.35 578.79 294.3 633.16 314.49 658.28 374.34 676.78 477.81 674.65 608.15 655.46 731.42 636.27 823.99 601.83 873.59 550.07 880.25 491.69 853.25 407.37 810.84 300.94 751.59 194.6 700.28 86.22 668.9 3.53 637.21 -31.09 629.11 -4.24 648.3 89.3 667.49 223.58 712.16 364.17 777.11 477.64 841.74 554.28 923.01 585.12 1007.41 581.68 1074.98 549.38 1122.33 509.98 1129.75 481.62 1094.24 448.86 1009.47 438.52 886.22 457.71Q886.15 457.72 886.15 457.72" opacity="0.86"></path></g></svg>